%TF.GenerationSoftware,KiCad,Pcbnew,7.0.5*%
%TF.CreationDate,2023-09-21T20:04:05-05:00*%
%TF.ProjectId,LEDCube,4c454443-7562-4652-9e6b-696361645f70,rev?*%
%TF.SameCoordinates,Original*%
%TF.FileFunction,Profile,NP*%
%FSLAX46Y46*%
G04 Gerber Fmt 4.6, Leading zero omitted, Abs format (unit mm)*
G04 Created by KiCad (PCBNEW 7.0.5) date 2023-09-21 20:04:05*
%MOMM*%
%LPD*%
G01*
G04 APERTURE LIST*
%TA.AperFunction,Profile*%
%ADD10C,0.150000*%
%TD*%
G04 APERTURE END LIST*
D10*
X159445786Y-100245786D02*
G75*
G03*
X161445786Y-98245786I14J1999986D01*
G01*
X123444214Y-53754214D02*
X123455786Y-64755786D01*
X145955786Y-113755786D02*
G75*
G03*
X147955786Y-111755786I14J1999986D01*
G01*
X125444214Y-51754214D02*
X145945786Y-51754214D01*
X112955786Y-102244214D02*
X112944214Y-111755786D01*
X147954214Y-102244214D02*
X147955786Y-111755786D01*
X101454214Y-100245786D02*
X110955786Y-100244214D01*
X147945786Y-53754214D02*
X147944214Y-63245786D01*
X161455786Y-67254214D02*
G75*
G03*
X159455786Y-65254214I-1999986J14D01*
G01*
X125444214Y-51754214D02*
G75*
G03*
X123444214Y-53754214I-14J-1999986D01*
G01*
X149944214Y-65245786D02*
X159455786Y-65254214D01*
X101444214Y-66754214D02*
G75*
G03*
X99444214Y-68754214I-14J-1999986D01*
G01*
X149954214Y-100244214D02*
G75*
G03*
X147954214Y-102244214I-14J-1999986D01*
G01*
X112944214Y-111755786D02*
G75*
G03*
X114944214Y-113755786I1999986J-14D01*
G01*
X161455786Y-67254214D02*
X161445786Y-98245786D01*
X114944214Y-113755786D02*
X145955786Y-113755786D01*
X101444214Y-66754214D02*
X121455786Y-66755786D01*
X121455786Y-66755786D02*
G75*
G03*
X123455786Y-64755786I14J1999986D01*
G01*
X147945786Y-53754214D02*
G75*
G03*
X145945786Y-51754214I-1999986J14D01*
G01*
X99454214Y-98245786D02*
G75*
G03*
X101454214Y-100245786I1999986J-14D01*
G01*
X147944214Y-63245786D02*
G75*
G03*
X149944214Y-65245786I1999986J-14D01*
G01*
X99454214Y-98245786D02*
X99444214Y-68754214D01*
X149954214Y-100244214D02*
X159445786Y-100245786D01*
X112955786Y-102244214D02*
G75*
G03*
X110955786Y-100244214I-1999986J14D01*
G01*
M02*
