%TF.GenerationSoftware,KiCad,Pcbnew,7.0.5*%
%TF.CreationDate,2023-09-21T20:04:05-05:00*%
%TF.ProjectId,LEDCube,4c454443-7562-4652-9e6b-696361645f70,rev?*%
%TF.SameCoordinates,Original*%
%TF.FileFunction,Paste,Top*%
%TF.FilePolarity,Positive*%
%FSLAX46Y46*%
G04 Gerber Fmt 4.6, Leading zero omitted, Abs format (unit mm)*
G04 Created by KiCad (PCBNEW 7.0.5) date 2023-09-21 20:04:05*
%MOMM*%
%LPD*%
G01*
G04 APERTURE LIST*
G04 Aperture macros list*
%AMRoundRect*
0 Rectangle with rounded corners*
0 $1 Rounding radius*
0 $2 $3 $4 $5 $6 $7 $8 $9 X,Y pos of 4 corners*
0 Add a 4 corners polygon primitive as box body*
4,1,4,$2,$3,$4,$5,$6,$7,$8,$9,$2,$3,0*
0 Add four circle primitives for the rounded corners*
1,1,$1+$1,$2,$3*
1,1,$1+$1,$4,$5*
1,1,$1+$1,$6,$7*
1,1,$1+$1,$8,$9*
0 Add four rect primitives between the rounded corners*
20,1,$1+$1,$2,$3,$4,$5,0*
20,1,$1+$1,$4,$5,$6,$7,0*
20,1,$1+$1,$6,$7,$8,$9,0*
20,1,$1+$1,$8,$9,$2,$3,0*%
G04 Aperture macros list end*
%ADD10RoundRect,0.200000X-0.275000X0.200000X-0.275000X-0.200000X0.275000X-0.200000X0.275000X0.200000X0*%
%ADD11RoundRect,0.225000X-0.250000X0.225000X-0.250000X-0.225000X0.250000X-0.225000X0.250000X0.225000X0*%
%ADD12R,1.500000X1.500000*%
%ADD13R,1.200000X1.000000*%
%ADD14RoundRect,0.225000X0.225000X0.250000X-0.225000X0.250000X-0.225000X-0.250000X0.225000X-0.250000X0*%
%ADD15R,1.250000X0.600000*%
%ADD16RoundRect,0.225000X-0.225000X-0.250000X0.225000X-0.250000X0.225000X0.250000X-0.225000X0.250000X0*%
%ADD17RoundRect,0.200000X0.200000X0.275000X-0.200000X0.275000X-0.200000X-0.275000X0.200000X-0.275000X0*%
%ADD18R,0.300000X1.150000*%
%ADD19R,2.180000X2.000000*%
%ADD20RoundRect,0.250000X-0.650000X0.325000X-0.650000X-0.325000X0.650000X-0.325000X0.650000X0.325000X0*%
%ADD21RoundRect,0.200000X0.275000X-0.200000X0.275000X0.200000X-0.275000X0.200000X-0.275000X-0.200000X0*%
%ADD22RoundRect,0.200000X-0.200000X-0.275000X0.200000X-0.275000X0.200000X0.275000X-0.200000X0.275000X0*%
%ADD23RoundRect,0.218750X0.218750X0.256250X-0.218750X0.256250X-0.218750X-0.256250X0.218750X-0.256250X0*%
%ADD24R,0.300000X1.000000*%
%ADD25R,1.000000X0.300000*%
%ADD26R,3.350000X3.350000*%
%ADD27R,1.500000X0.900000*%
%ADD28R,0.900000X1.500000*%
%ADD29R,0.900000X0.900000*%
%ADD30R,0.300000X0.800000*%
%ADD31R,2.480000X1.750000*%
%ADD32RoundRect,0.225000X0.250000X-0.225000X0.250000X0.225000X-0.250000X0.225000X-0.250000X-0.225000X0*%
%ADD33R,0.410000X0.280000*%
%ADD34R,0.280000X0.410000*%
G04 APERTURE END LIST*
D10*
%TO.C,R102*%
X116030000Y-77025000D03*
X116030000Y-78675000D03*
%TD*%
D11*
%TO.C,C110*%
X151570000Y-68305000D03*
X151570000Y-69855000D03*
%TD*%
D12*
%TO.C,U100*%
X101180000Y-85740000D03*
X103080000Y-85740000D03*
X104980000Y-85740000D03*
X106880000Y-85740000D03*
X101180000Y-83740000D03*
X103080000Y-83740000D03*
X104980000Y-83740000D03*
X106880000Y-83740000D03*
X101180000Y-81740000D03*
X103080000Y-81740000D03*
X104980000Y-81740000D03*
X106880000Y-81740000D03*
X101180000Y-79740000D03*
X103080000Y-79740000D03*
X104980000Y-79740000D03*
X106880000Y-79740000D03*
D13*
X110180000Y-85280000D03*
X110180000Y-82740000D03*
X110180000Y-80200000D03*
%TD*%
D14*
%TO.C,C106*%
X109315000Y-94260000D03*
X107765000Y-94260000D03*
%TD*%
D15*
%TO.C,Q100*%
X157440000Y-68065000D03*
X157440000Y-69975000D03*
X159540000Y-69020000D03*
%TD*%
D16*
%TO.C,C103*%
X117610000Y-77110000D03*
X119160000Y-77110000D03*
%TD*%
D17*
%TO.C,R101*%
X116955000Y-80990000D03*
X115305000Y-80990000D03*
%TD*%
D18*
%TO.C,J100*%
X119740000Y-74211500D03*
X118940000Y-74211500D03*
X117640000Y-74211500D03*
X116640000Y-74211500D03*
X116140000Y-74211500D03*
X115140000Y-74211500D03*
X113840000Y-74211500D03*
X113040000Y-74211500D03*
X113340000Y-74211500D03*
X114140000Y-74211500D03*
X114640000Y-74211500D03*
X115640000Y-74211500D03*
X117140000Y-74211500D03*
X118140000Y-74211500D03*
X118640000Y-74211500D03*
X119440000Y-74211500D03*
D19*
X121500000Y-69706500D03*
X111280000Y-69706500D03*
X121500000Y-73636500D03*
X111280000Y-73636500D03*
%TD*%
D20*
%TO.C,C107*%
X124760000Y-59575000D03*
X124760000Y-62525000D03*
%TD*%
D21*
%TO.C,R117*%
X148700000Y-73385000D03*
X148700000Y-71735000D03*
%TD*%
D10*
%TO.C,R105*%
X112230000Y-95815000D03*
X112230000Y-97465000D03*
%TD*%
D22*
%TO.C,R119*%
X125260000Y-80060000D03*
X126910000Y-80060000D03*
%TD*%
%TO.C,R112*%
X128320000Y-83640000D03*
X129970000Y-83640000D03*
%TD*%
D17*
%TO.C,R104*%
X108515000Y-69630000D03*
X106865000Y-69630000D03*
%TD*%
D22*
%TO.C,R115*%
X125260000Y-85430000D03*
X126910000Y-85430000D03*
%TD*%
%TO.C,R109*%
X107685000Y-99390000D03*
X109335000Y-99390000D03*
%TD*%
D10*
%TO.C,R107*%
X112580000Y-92790000D03*
X112580000Y-94440000D03*
%TD*%
D16*
%TO.C,C102*%
X117620000Y-78650000D03*
X119170000Y-78650000D03*
%TD*%
D23*
%TO.C,D101*%
X102390000Y-95140000D03*
X100815000Y-95140000D03*
%TD*%
D24*
%TO.C,IC100*%
X122590000Y-80590000D03*
X122090000Y-80590000D03*
X121590000Y-80590000D03*
X121090000Y-80590000D03*
X120590000Y-80590000D03*
X120090000Y-80590000D03*
X119590000Y-80590000D03*
D25*
X118740000Y-81440000D03*
X118740000Y-81940000D03*
X118740000Y-82440000D03*
X118740000Y-82940000D03*
X118740000Y-83440000D03*
X118740000Y-83940000D03*
X118740000Y-84440000D03*
D24*
X119590000Y-85290000D03*
X120090000Y-85290000D03*
X120590000Y-85290000D03*
X121090000Y-85290000D03*
X121590000Y-85290000D03*
X122090000Y-85290000D03*
X122590000Y-85290000D03*
D25*
X123440000Y-84440000D03*
X123440000Y-83940000D03*
X123440000Y-83440000D03*
X123440000Y-82940000D03*
X123440000Y-82440000D03*
X123440000Y-81940000D03*
X123440000Y-81440000D03*
D26*
X121090000Y-82940000D03*
%TD*%
D27*
%TO.C,IC102*%
X127730000Y-59330000D03*
X127730000Y-60600000D03*
X127730000Y-61870000D03*
X127730000Y-63140000D03*
X127730000Y-64410000D03*
X127730000Y-65680000D03*
X127730000Y-66950000D03*
X127730000Y-68220000D03*
X127730000Y-69490000D03*
X127730000Y-70760000D03*
X127730000Y-72030000D03*
X127730000Y-73300000D03*
X127730000Y-74570000D03*
X127730000Y-75840000D03*
D28*
X130765000Y-77090000D03*
X132035000Y-77090000D03*
X133305000Y-77090000D03*
X134575000Y-77090000D03*
X135845000Y-77090000D03*
X137115000Y-77090000D03*
X138385000Y-77090000D03*
X139655000Y-77090000D03*
X140925000Y-77090000D03*
X142195000Y-77090000D03*
D27*
X145230000Y-75840000D03*
X145230000Y-74570000D03*
X145230000Y-73300000D03*
X145230000Y-72030000D03*
X145230000Y-70760000D03*
X145230000Y-69490000D03*
X145230000Y-68220000D03*
X145230000Y-66950000D03*
X145230000Y-65680000D03*
X145230000Y-64410000D03*
X145230000Y-63140000D03*
X145230000Y-61870000D03*
X145230000Y-60600000D03*
X145230000Y-59330000D03*
D29*
X134980000Y-67050000D03*
X133580000Y-65650000D03*
X133580000Y-67050000D03*
X133580000Y-68450000D03*
X134980000Y-68450000D03*
X136380000Y-68450000D03*
X136380000Y-67050000D03*
X136380000Y-65650000D03*
X134980000Y-65650000D03*
%TD*%
D22*
%TO.C,R110*%
X153635000Y-70100000D03*
X155285000Y-70100000D03*
%TD*%
D17*
%TO.C,R106*%
X159295000Y-66330000D03*
X157645000Y-66330000D03*
%TD*%
D22*
%TO.C,R114*%
X125260000Y-83640000D03*
X126910000Y-83640000D03*
%TD*%
D15*
%TO.C,Q101*%
X155450000Y-68335000D03*
X155450000Y-66425000D03*
X153350000Y-67380000D03*
%TD*%
D21*
%TO.C,R111*%
X107770000Y-97375000D03*
X107770000Y-95725000D03*
%TD*%
D11*
%TO.C,C109*%
X150350000Y-71795000D03*
X150350000Y-73345000D03*
%TD*%
%TO.C,C105*%
X110900000Y-92840000D03*
X110900000Y-94390000D03*
%TD*%
D14*
%TO.C,C111*%
X126860000Y-81850000D03*
X125310000Y-81850000D03*
%TD*%
D23*
%TO.C,D102*%
X102340000Y-98890000D03*
X100765000Y-98890000D03*
%TD*%
D30*
%TO.C,IC101*%
X106192500Y-95950000D03*
X105692500Y-95950000D03*
X105192500Y-95950000D03*
X104692500Y-95950000D03*
X104192500Y-95950000D03*
X104192500Y-98950000D03*
X104692500Y-98950000D03*
X105192500Y-98950000D03*
X105692500Y-98950000D03*
X106192500Y-98950000D03*
D31*
X105192500Y-97450000D03*
%TD*%
D32*
%TO.C,C108*%
X124710000Y-57625000D03*
X124710000Y-56075000D03*
%TD*%
D14*
%TO.C,C101*%
X114470000Y-78620000D03*
X112920000Y-78620000D03*
%TD*%
D17*
%TO.C,R113*%
X129970000Y-85430000D03*
X128320000Y-85430000D03*
%TD*%
D22*
%TO.C,R100*%
X115325000Y-83050000D03*
X116975000Y-83050000D03*
%TD*%
D33*
%TO.C,U101*%
X148680170Y-68400000D03*
X148680170Y-68900000D03*
X148680170Y-69400000D03*
X148680170Y-69900000D03*
D34*
X149245170Y-69965000D03*
X149745170Y-69965000D03*
D33*
X150310170Y-69900000D03*
X150310170Y-69400000D03*
X150310170Y-68900000D03*
X150310170Y-68400000D03*
D34*
X149745170Y-68335000D03*
X149245170Y-68335000D03*
%TD*%
D17*
%TO.C,R103*%
X108495000Y-68010000D03*
X106845000Y-68010000D03*
%TD*%
D14*
%TO.C,C100*%
X114490000Y-77090000D03*
X112940000Y-77090000D03*
%TD*%
D10*
%TO.C,R108*%
X113840000Y-95805000D03*
X113840000Y-97455000D03*
%TD*%
D20*
%TO.C,C104*%
X112380000Y-80195000D03*
X112380000Y-83145000D03*
%TD*%
D17*
%TO.C,R116*%
X150705000Y-66670000D03*
X149055000Y-66670000D03*
%TD*%
D23*
%TO.C,D100*%
X102320000Y-97015000D03*
X100745000Y-97015000D03*
%TD*%
M02*
