%TF.GenerationSoftware,KiCad,Pcbnew,7.0.5*%
%TF.CreationDate,2023-09-21T20:04:05-05:00*%
%TF.ProjectId,LEDCube,4c454443-7562-4652-9e6b-696361645f70,rev?*%
%TF.SameCoordinates,Original*%
%TF.FileFunction,Copper,L4,Bot*%
%TF.FilePolarity,Positive*%
%FSLAX46Y46*%
G04 Gerber Fmt 4.6, Leading zero omitted, Abs format (unit mm)*
G04 Created by KiCad (PCBNEW 7.0.5) date 2023-09-21 20:04:05*
%MOMM*%
%LPD*%
G01*
G04 APERTURE LIST*
%TA.AperFunction,ComponentPad*%
%ADD10C,0.800000*%
%TD*%
%TA.AperFunction,ComponentPad*%
%ADD11C,6.400000*%
%TD*%
%TA.AperFunction,ViaPad*%
%ADD12C,0.450000*%
%TD*%
%TA.AperFunction,Conductor*%
%ADD13C,0.300000*%
%TD*%
%TA.AperFunction,Conductor*%
%ADD14C,0.150000*%
%TD*%
%TA.AperFunction,Conductor*%
%ADD15C,0.125000*%
%TD*%
G04 APERTURE END LIST*
D10*
%TO.P,H100,1*%
%TO.N,N/C*%
X102550000Y-74750000D03*
X103252944Y-73052944D03*
X103252944Y-76447056D03*
X104950000Y-72350000D03*
D11*
%TO.N,GND*%
X104950000Y-74750000D03*
D10*
%TO.N,N/C*%
X104950000Y-77150000D03*
X106647056Y-73052944D03*
X106647056Y-76447056D03*
X107350000Y-74750000D03*
%TD*%
%TO.P,H103,1*%
%TO.N,N/C*%
X153550000Y-90750000D03*
X154252944Y-89052944D03*
X154252944Y-92447056D03*
X155950000Y-88350000D03*
D11*
%TO.N,GND*%
X155950000Y-90750000D03*
D10*
%TO.N,N/C*%
X155950000Y-93150000D03*
X157647056Y-89052944D03*
X157647056Y-92447056D03*
X158350000Y-90750000D03*
%TD*%
%TO.P,H101,1*%
%TO.N,N/C*%
X153550000Y-74750000D03*
X154252944Y-73052944D03*
X154252944Y-76447056D03*
X155950000Y-72350000D03*
D11*
%TO.N,GND*%
X155950000Y-74750000D03*
D10*
%TO.N,N/C*%
X155950000Y-77150000D03*
X157647056Y-73052944D03*
X157647056Y-76447056D03*
X158350000Y-74750000D03*
%TD*%
%TO.P,H102,1*%
%TO.N,N/C*%
X102550000Y-90750000D03*
X103252944Y-89052944D03*
X103252944Y-92447056D03*
X104950000Y-88350000D03*
D11*
%TO.N,GND*%
X104950000Y-90750000D03*
D10*
%TO.N,N/C*%
X104950000Y-93150000D03*
X106647056Y-89052944D03*
X106647056Y-92447056D03*
X107350000Y-90750000D03*
%TD*%
D12*
%TO.N,+3V3*%
X112830000Y-81350000D03*
X137430000Y-80990000D03*
X141280000Y-110310000D03*
X111910000Y-81350000D03*
X149280000Y-74200000D03*
X124430000Y-79420000D03*
X130280000Y-110320000D03*
X135280000Y-97200000D03*
X129120000Y-60600000D03*
X146270000Y-97260000D03*
X150400000Y-80120000D03*
%TO.N,GND*%
X104450000Y-97020000D03*
X115310000Y-81940000D03*
X105870000Y-97020000D03*
X103080000Y-71405000D03*
X126920000Y-86420000D03*
X138480000Y-90390000D03*
X101130000Y-79740000D03*
X149490000Y-69120000D03*
X117280000Y-90920000D03*
X112030000Y-77090000D03*
X104980000Y-85750000D03*
X106880000Y-83750000D03*
X101180000Y-91090000D03*
X116480000Y-98420000D03*
X108230000Y-93130000D03*
X101130000Y-73570000D03*
X120090500Y-78650000D03*
X134990000Y-64480000D03*
X159110000Y-72090000D03*
X148250000Y-67710000D03*
X159140000Y-88110000D03*
X106880000Y-79750000D03*
X101180000Y-92720000D03*
X120450000Y-75350000D03*
X144340788Y-85279212D03*
X152540000Y-69860000D03*
X124210000Y-63840000D03*
X146180000Y-103520000D03*
X101180000Y-89370000D03*
X103080000Y-69240000D03*
X103080000Y-85750000D03*
X105900000Y-69630000D03*
X103080000Y-83750000D03*
X103080000Y-81750000D03*
X118300000Y-91930000D03*
X101180000Y-85750000D03*
X110900000Y-95669500D03*
X101180000Y-83750000D03*
X104980000Y-69240000D03*
X106880000Y-71405000D03*
X101130000Y-77900000D03*
X101180000Y-81750000D03*
X115960000Y-90870000D03*
X150310000Y-90400000D03*
X104980000Y-83750000D03*
X101180000Y-87490000D03*
X106880000Y-81750000D03*
X104980000Y-81750000D03*
X120670000Y-107880000D03*
X124420000Y-81469500D03*
X101130000Y-69240000D03*
X101130000Y-75735000D03*
X101130000Y-71405000D03*
X103060000Y-87490000D03*
X121090000Y-82940000D03*
X105870000Y-97870000D03*
X106880000Y-85750000D03*
X157830000Y-84690000D03*
X104980000Y-79750000D03*
X134320000Y-103540000D03*
X106880000Y-87490000D03*
X104450000Y-97870000D03*
X110300000Y-99390000D03*
X103080000Y-79750000D03*
%TO.N,VBUS*%
X112550000Y-91610000D03*
X106180000Y-94670000D03*
X118240000Y-73100000D03*
X114410000Y-75500000D03*
%TO.N,Net-(D100-A)*%
X111310000Y-97470000D03*
X100120000Y-96160000D03*
%TO.N,Net-(D101-A)*%
X101610000Y-95970500D03*
X113580000Y-94440000D03*
%TO.N,Net-(D102-A)*%
X113840000Y-98340000D03*
X103106800Y-99553200D03*
%TO.N,MASTER_CLK*%
X146840000Y-84940000D03*
X139720000Y-88070000D03*
X136550000Y-108830000D03*
X141650000Y-95550000D03*
X152460000Y-86458000D03*
X143280000Y-108800000D03*
X148340000Y-95360000D03*
%TO.N,LATCH*%
X132280000Y-104400000D03*
X144240000Y-82710000D03*
X145960000Y-87240000D03*
X137090000Y-91265000D03*
X157840000Y-81200000D03*
X144240000Y-91280000D03*
X139450000Y-104400000D03*
%TO.N,BRIGHTNESS_PWM*%
X141233443Y-94573000D03*
X142260000Y-87060000D03*
X148260000Y-92830000D03*
X141720000Y-93027000D03*
X145140638Y-85290638D03*
X150930000Y-88040000D03*
X143280000Y-106030000D03*
X136680000Y-106137000D03*
%TO.N,Net-(IC100-RSTB)*%
X117650000Y-82060000D03*
X116030000Y-79410000D03*
%TO.N,MUX_B0*%
X140990000Y-87560000D03*
X141350000Y-93780000D03*
X139640000Y-89830000D03*
X136240000Y-106950000D03*
X140760000Y-89117000D03*
X143310000Y-106910000D03*
X148380000Y-93800000D03*
X146010448Y-85080828D03*
%TO.N,MUX_B1*%
X138350000Y-88630000D03*
X145250000Y-110520000D03*
X148320000Y-96290000D03*
X150940000Y-85750000D03*
X148665000Y-88025000D03*
X141330000Y-96300000D03*
%TO.N,MUX_B2*%
X139470000Y-105660000D03*
X147310000Y-79120000D03*
X147630000Y-87950000D03*
X142240000Y-79150000D03*
X149760000Y-83750000D03*
X137100000Y-92535000D03*
X132280000Y-105650000D03*
X144310000Y-92540000D03*
%TO.N,MUX_B3*%
X150050000Y-81720000D03*
X144300000Y-95080000D03*
X137270000Y-95060000D03*
X140170000Y-90430000D03*
X132270000Y-108220000D03*
X139520000Y-108230000D03*
X139730000Y-83200000D03*
%TO.N,BMA400_INT1*%
X148840000Y-70520000D03*
X131860000Y-68730000D03*
%TO.N,SDA*%
X129480000Y-68220000D03*
X147320000Y-69190000D03*
%TO.N,SCL*%
X147660000Y-67080000D03*
X131190000Y-67600000D03*
%TO.N,IO0*%
X154400000Y-71080000D03*
X146430000Y-75830000D03*
%TO.N,TXD*%
X134852513Y-72842513D03*
X144055000Y-64675000D03*
X142235250Y-66435250D03*
X124502478Y-82440500D03*
%TO.N,RXD*%
X141520000Y-65700000D03*
X144019500Y-63140000D03*
X129834500Y-79590000D03*
X130950000Y-78410000D03*
X135620000Y-71600000D03*
X126143200Y-82753200D03*
%TO.N,D-*%
X116140000Y-73170000D03*
X117150000Y-73170000D03*
%TO.N,RTS*%
X160210000Y-66320000D03*
X124435500Y-83760000D03*
%TO.N,DTR*%
X123450000Y-80970000D03*
X156260000Y-70070000D03*
%TO.N,Net-(IC101-PROG)*%
X103527998Y-97980000D03*
X106930000Y-97969500D03*
%TO.N,EN*%
X152120000Y-66840000D03*
X129160000Y-61830000D03*
%TD*%
D13*
%TO.N,VBUS*%
X111460000Y-91610000D02*
X112550000Y-91610000D01*
X115840000Y-75500000D02*
X114410000Y-75500000D01*
X118240000Y-73100000D02*
X115840000Y-75500000D01*
X108400000Y-94670000D02*
X111460000Y-91610000D01*
X106180000Y-94670000D02*
X108400000Y-94670000D01*
D14*
%TO.N,Net-(D100-A)*%
X109700000Y-96470000D02*
X110005000Y-96165000D01*
X110005000Y-96165000D02*
X111310000Y-97470000D01*
X100120000Y-96160000D02*
X100430000Y-96470000D01*
X100430000Y-96470000D02*
X109700000Y-96470000D01*
%TO.N,Net-(D101-A)*%
X112850000Y-95170000D02*
X113580000Y-94440000D01*
X102410500Y-95170000D02*
X112850000Y-95170000D01*
X101610000Y-95970500D02*
X102410500Y-95170000D01*
%TO.N,Net-(D102-A)*%
X113480000Y-98700000D02*
X113840000Y-98340000D01*
X105841274Y-99553200D02*
X106694474Y-98700000D01*
X103106800Y-99553200D02*
X105841274Y-99553200D01*
X106694474Y-98700000D02*
X113480000Y-98700000D01*
D15*
%TO.N,MASTER_CLK*%
X152060000Y-86858000D02*
X152460000Y-86458000D01*
X136550000Y-108830000D02*
X143250000Y-108830000D01*
X140400000Y-100230000D02*
X144710000Y-104540000D01*
X148340000Y-95360000D02*
X152060000Y-91640000D01*
X140400000Y-96180000D02*
X140400000Y-100230000D01*
X144710000Y-107370000D02*
X143280000Y-108800000D01*
X152060000Y-91640000D02*
X152060000Y-86858000D01*
X141030000Y-95550000D02*
X140400000Y-96180000D01*
X143250000Y-108830000D02*
X143280000Y-108800000D01*
X141650000Y-95550000D02*
X141030000Y-95550000D01*
X143710000Y-88070000D02*
X146840000Y-84940000D01*
X148132500Y-95567500D02*
X148340000Y-95360000D01*
X141667500Y-95567500D02*
X148132500Y-95567500D01*
X144710000Y-104540000D02*
X144710000Y-107370000D01*
X139720000Y-88070000D02*
X143710000Y-88070000D01*
X141650000Y-95550000D02*
X141667500Y-95567500D01*
%TO.N,LATCH*%
X144240000Y-82710000D02*
X146220000Y-80730000D01*
X132280000Y-104400000D02*
X139450000Y-104400000D01*
X137090000Y-91265000D02*
X137105000Y-91280000D01*
X146220000Y-80730000D02*
X150910000Y-80730000D01*
X157670000Y-80730000D02*
X157840000Y-80900000D01*
D14*
X145960000Y-87240000D02*
X145960000Y-86590000D01*
D15*
X157840000Y-80900000D02*
X157840000Y-81200000D01*
D14*
X145960000Y-86590000D02*
X150910000Y-81640000D01*
D15*
X137105000Y-91280000D02*
X144240000Y-91280000D01*
X132280000Y-96050000D02*
X132280000Y-104400000D01*
D14*
X150910000Y-81640000D02*
X150910000Y-80730000D01*
D15*
X150910000Y-80730000D02*
X157670000Y-80730000D01*
X137090000Y-91265000D02*
X137065000Y-91265000D01*
X137065000Y-91265000D02*
X132280000Y-96050000D01*
%TO.N,BRIGHTNESS_PWM*%
X141413570Y-93027000D02*
X140862500Y-93578070D01*
X136690500Y-106147500D02*
X143162500Y-106147500D01*
X148063000Y-93027000D02*
X148260000Y-92830000D01*
X148260000Y-92830000D02*
X148260000Y-90710000D01*
X141720000Y-93027000D02*
X141413570Y-93027000D01*
X140862500Y-93578070D02*
X140862500Y-94202057D01*
X140862500Y-94202057D02*
X141233443Y-94573000D01*
X143371276Y-87060000D02*
X142260000Y-87060000D01*
X143162500Y-106147500D02*
X143280000Y-106030000D01*
X148260000Y-90710000D02*
X150930000Y-88040000D01*
X141720000Y-93027000D02*
X148063000Y-93027000D01*
X136680000Y-106137000D02*
X136690500Y-106147500D01*
X145140638Y-85290638D02*
X143371276Y-87060000D01*
D13*
%TO.N,Net-(IC100-RSTB)*%
X116030000Y-80440000D02*
X117650000Y-82060000D01*
X116030000Y-79410000D02*
X116030000Y-80440000D01*
D15*
%TO.N,MUX_B0*%
X148360000Y-93780000D02*
X148380000Y-93800000D01*
X146010448Y-85109552D02*
X143560000Y-87560000D01*
X143270000Y-106950000D02*
X143310000Y-106910000D01*
X141350000Y-93780000D02*
X148360000Y-93780000D01*
X143560000Y-87560000D02*
X140990000Y-87560000D01*
X136240000Y-106950000D02*
X143270000Y-106950000D01*
X146010448Y-85080828D02*
X146010448Y-85109552D01*
X140047000Y-89830000D02*
X140760000Y-89117000D01*
X139640000Y-89830000D02*
X140047000Y-89830000D01*
%TO.N,MUX_B1*%
X145250000Y-99360000D02*
X145250000Y-110520000D01*
X148320000Y-96290000D02*
X145250000Y-99360000D01*
X141330000Y-96300000D02*
X148310000Y-96300000D01*
X148310000Y-96300000D02*
X148320000Y-96290000D01*
X148060000Y-88630000D02*
X148665000Y-88025000D01*
X148665000Y-88025000D02*
X150940000Y-85750000D01*
X138350000Y-88630000D02*
X148060000Y-88630000D01*
%TO.N,MUX_B2*%
X135890000Y-93745000D02*
X135890000Y-99290000D01*
X132280000Y-105650000D02*
X139460000Y-105650000D01*
X147630000Y-87670000D02*
X149760000Y-85540000D01*
X147630000Y-87950000D02*
X147630000Y-87670000D01*
X135890000Y-99290000D02*
X140290000Y-103690000D01*
X140290000Y-104840000D02*
X139470000Y-105660000D01*
X139460000Y-105650000D02*
X139470000Y-105660000D01*
X140290000Y-103690000D02*
X140290000Y-104840000D01*
X149760000Y-85540000D02*
X149760000Y-83750000D01*
X142240000Y-79150000D02*
X147280000Y-79150000D01*
X137100000Y-92535000D02*
X137105000Y-92540000D01*
X147280000Y-79150000D02*
X147310000Y-79120000D01*
X137100000Y-92535000D02*
X135890000Y-93745000D01*
X137105000Y-92540000D02*
X144310000Y-92540000D01*
%TO.N,MUX_B3*%
X137270000Y-95060000D02*
X144280000Y-95060000D01*
X137270000Y-95060000D02*
X137270000Y-98480000D01*
X143190000Y-108230000D02*
X139520000Y-108230000D01*
X137720000Y-83200000D02*
X139730000Y-83200000D01*
X140170000Y-90430000D02*
X139460000Y-90430000D01*
X137270000Y-98480000D02*
X144250000Y-105460000D01*
X139460000Y-90430000D02*
X137040000Y-88010000D01*
X132270000Y-108220000D02*
X139510000Y-108220000D01*
X139510000Y-108220000D02*
X139520000Y-108230000D01*
X137040000Y-88010000D02*
X137040000Y-83880000D01*
X137040000Y-83880000D02*
X137720000Y-83200000D01*
X139730000Y-83200000D02*
X148570000Y-83200000D01*
X144280000Y-95060000D02*
X144300000Y-95080000D01*
X144250000Y-105460000D02*
X144250000Y-107170000D01*
X148570000Y-83200000D02*
X150050000Y-81720000D01*
X144250000Y-107170000D02*
X143190000Y-108230000D01*
D14*
%TO.N,BMA400_INT1*%
X131860000Y-68730000D02*
X133650000Y-70520000D01*
X133650000Y-70520000D02*
X148840000Y-70520000D01*
%TO.N,SDA*%
X129480000Y-68220000D02*
X146350000Y-68220000D01*
X146350000Y-68220000D02*
X147320000Y-69190000D01*
%TO.N,SCL*%
X147660000Y-67080000D02*
X147140000Y-67600000D01*
X147140000Y-67600000D02*
X131190000Y-67600000D01*
%TO.N,IO0*%
X149650000Y-75830000D02*
X154400000Y-71080000D01*
X146430000Y-75830000D02*
X149650000Y-75830000D01*
%TO.N,TXD*%
X144055000Y-64675000D02*
X142294750Y-66435250D01*
X142294750Y-66435250D02*
X142235250Y-66435250D01*
X124502478Y-82440500D02*
X125254526Y-82440500D01*
X125254526Y-82440500D02*
X134852513Y-72842513D01*
%TO.N,RXD*%
X144019500Y-63140000D02*
X141520000Y-65639500D01*
X126143200Y-82753200D02*
X126671300Y-82753200D01*
X141520000Y-65639500D02*
X141520000Y-65700000D01*
X135620000Y-73740000D02*
X135620000Y-71600000D01*
X130950000Y-78410000D02*
X135620000Y-73740000D01*
X126671300Y-82753200D02*
X129834500Y-79590000D01*
%TO.N,D-*%
X117150000Y-73170000D02*
X116140000Y-73170000D01*
%TO.N,RTS*%
X124435500Y-83760000D02*
X124435500Y-83754500D01*
X157510000Y-78560000D02*
X160210000Y-75860000D01*
X129980000Y-78910000D02*
X131157107Y-78910000D01*
X160210000Y-75860000D02*
X160210000Y-66320000D01*
X124435500Y-83754500D02*
X129630000Y-78560000D01*
X131507107Y-78560000D02*
X157510000Y-78560000D01*
X129630000Y-78560000D02*
X129980000Y-78910000D01*
X131157107Y-78910000D02*
X131507107Y-78560000D01*
%TO.N,DTR*%
X154192893Y-70580000D02*
X155750000Y-70580000D01*
X125480000Y-80970000D02*
X135430000Y-71020000D01*
X149247107Y-70820000D02*
X153952893Y-70820000D01*
X135430000Y-71020000D02*
X149047107Y-71020000D01*
X149047107Y-71020000D02*
X149247107Y-70820000D01*
X155750000Y-70580000D02*
X156260000Y-70070000D01*
X153952893Y-70820000D02*
X154192893Y-70580000D01*
X123450000Y-80970000D02*
X125480000Y-80970000D01*
%TO.N,Net-(IC101-PROG)*%
X106529500Y-98370000D02*
X103917998Y-98370000D01*
X106930000Y-97969500D02*
X106529500Y-98370000D01*
X103917998Y-98370000D02*
X103527998Y-97980000D01*
D15*
%TO.N,EN*%
X131060000Y-59930000D02*
X129160000Y-61830000D01*
X144910000Y-59930000D02*
X143230000Y-59930000D01*
X146660000Y-64472652D02*
X146660000Y-61680000D01*
X143230000Y-59930000D02*
X131060000Y-59930000D01*
X152120000Y-66840000D02*
X149027348Y-66840000D01*
X146660000Y-61680000D02*
X144910000Y-59930000D01*
X149027348Y-66840000D02*
X146660000Y-64472652D01*
%TD*%
M02*
