%TF.GenerationSoftware,KiCad,Pcbnew,7.0.5*%
%TF.CreationDate,2023-09-21T19:27:35-05:00*%
%TF.ProjectId,KiCadPanel,4b694361-6450-4616-9e65-6c2e6b696361,rev?*%
%TF.SameCoordinates,Original*%
%TF.FileFunction,Paste,Bot*%
%TF.FilePolarity,Positive*%
%FSLAX46Y46*%
G04 Gerber Fmt 4.6, Leading zero omitted, Abs format (unit mm)*
G04 Created by KiCad (PCBNEW 7.0.5) date 2023-09-21 19:27:35*
%MOMM*%
%LPD*%
G01*
G04 APERTURE LIST*
%ADD10R,0.800000X0.700000*%
G04 APERTURE END LIST*
D10*
%TO.C,U169*%
X141150000Y-68550000D03*
X142850000Y-68550000D03*
X142850000Y-67450000D03*
X141150000Y-67450000D03*
%TD*%
%TO.C,U335*%
X117150000Y-108550000D03*
X118850000Y-108550000D03*
X118850000Y-107450000D03*
X117150000Y-107450000D03*
%TD*%
%TO.C,U215*%
X149150000Y-80550000D03*
X150850000Y-80550000D03*
X150850000Y-79450000D03*
X149150000Y-79450000D03*
%TD*%
%TO.C,U205*%
X125150000Y-76550000D03*
X126850000Y-76550000D03*
X126850000Y-75450000D03*
X125150000Y-75450000D03*
%TD*%
%TO.C,U165*%
X157150000Y-68550000D03*
X158850000Y-68550000D03*
X158850000Y-67450000D03*
X157150000Y-67450000D03*
%TD*%
%TO.C,U118*%
X153150000Y-56550000D03*
X154850000Y-56550000D03*
X154850000Y-55450000D03*
X153150000Y-55450000D03*
%TD*%
%TO.C,U274*%
X105150000Y-92550000D03*
X106850000Y-92550000D03*
X106850000Y-91450000D03*
X105150000Y-91450000D03*
%TD*%
%TO.C,U331*%
X133150000Y-108550000D03*
X134850000Y-108550000D03*
X134850000Y-107450000D03*
X133150000Y-107450000D03*
%TD*%
%TO.C,U113*%
X109150000Y-52550000D03*
X110850000Y-52550000D03*
X110850000Y-51450000D03*
X109150000Y-51450000D03*
%TD*%
%TO.C,U227*%
X101150000Y-80550000D03*
X102850000Y-80550000D03*
X102850000Y-79450000D03*
X101150000Y-79450000D03*
%TD*%
%TO.C,U155*%
X133150000Y-64550000D03*
X134850000Y-64550000D03*
X134850000Y-63450000D03*
X133150000Y-63450000D03*
%TD*%
%TO.C,U319*%
X117150000Y-104550000D03*
X118850000Y-104550000D03*
X118850000Y-103450000D03*
X117150000Y-103450000D03*
%TD*%
%TO.C,U123*%
X133150000Y-56550000D03*
X134850000Y-56550000D03*
X134850000Y-55450000D03*
X133150000Y-55450000D03*
%TD*%
%TO.C,U261*%
X157150000Y-92550000D03*
X158850000Y-92550000D03*
X158850000Y-91450000D03*
X157150000Y-91450000D03*
%TD*%
%TO.C,U271*%
X117150000Y-92550000D03*
X118850000Y-92550000D03*
X118850000Y-91450000D03*
X117150000Y-91450000D03*
%TD*%
%TO.C,U353*%
X109150000Y-112550000D03*
X110850000Y-112550000D03*
X110850000Y-111450000D03*
X109150000Y-111450000D03*
%TD*%
%TO.C,U219*%
X133150000Y-80550000D03*
X134850000Y-80550000D03*
X134850000Y-79450000D03*
X133150000Y-79450000D03*
%TD*%
%TO.C,U210*%
X105150000Y-76550000D03*
X106850000Y-76550000D03*
X106850000Y-75450000D03*
X105150000Y-75450000D03*
%TD*%
%TO.C,U350*%
X121150000Y-112550000D03*
X122850000Y-112550000D03*
X122850000Y-111450000D03*
X121150000Y-111450000D03*
%TD*%
%TO.C,U160*%
X113150000Y-64550000D03*
X114850000Y-64550000D03*
X114850000Y-63450000D03*
X113150000Y-63450000D03*
%TD*%
%TO.C,U243*%
X101150000Y-84550000D03*
X102850000Y-84550000D03*
X102850000Y-83450000D03*
X101150000Y-83450000D03*
%TD*%
%TO.C,U174*%
X121150000Y-68550000D03*
X122850000Y-68550000D03*
X122850000Y-67450000D03*
X121150000Y-67450000D03*
%TD*%
%TO.C,U299*%
X133150000Y-100550000D03*
X134850000Y-100550000D03*
X134850000Y-99450000D03*
X133150000Y-99450000D03*
%TD*%
%TO.C,U229*%
X157150000Y-84530000D03*
X158850000Y-84530000D03*
X158850000Y-83430000D03*
X157150000Y-83430000D03*
%TD*%
%TO.C,U122*%
X137150000Y-56550000D03*
X138850000Y-56550000D03*
X138850000Y-55450000D03*
X137150000Y-55450000D03*
%TD*%
%TO.C,U298*%
X137150000Y-100550000D03*
X138850000Y-100550000D03*
X138850000Y-99450000D03*
X137150000Y-99450000D03*
%TD*%
%TO.C,U286*%
X121150000Y-96550000D03*
X122850000Y-96550000D03*
X122850000Y-95450000D03*
X121150000Y-95450000D03*
%TD*%
%TO.C,U116*%
X161150000Y-56550000D03*
X162850000Y-56550000D03*
X162850000Y-55450000D03*
X161150000Y-55450000D03*
%TD*%
%TO.C,U256*%
X113150000Y-88550000D03*
X114850000Y-88550000D03*
X114850000Y-87450000D03*
X113150000Y-87450000D03*
%TD*%
%TO.C,U323*%
X101150000Y-104550000D03*
X102850000Y-104550000D03*
X102850000Y-103450000D03*
X101150000Y-103450000D03*
%TD*%
%TO.C,U157*%
X125150000Y-64550000D03*
X126850000Y-64550000D03*
X126850000Y-63450000D03*
X125150000Y-63450000D03*
%TD*%
%TO.C,U287*%
X117150000Y-96550000D03*
X118850000Y-96550000D03*
X118850000Y-95450000D03*
X117150000Y-95450000D03*
%TD*%
%TO.C,U324*%
X161150000Y-108550000D03*
X162850000Y-108550000D03*
X162850000Y-107450000D03*
X161150000Y-107450000D03*
%TD*%
%TO.C,U212*%
X161150000Y-80550000D03*
X162850000Y-80550000D03*
X162850000Y-79450000D03*
X161150000Y-79450000D03*
%TD*%
%TO.C,U277*%
X157150000Y-96550000D03*
X158850000Y-96550000D03*
X158850000Y-95450000D03*
X157150000Y-95450000D03*
%TD*%
%TO.C,U237*%
X125150000Y-84550000D03*
X126850000Y-84550000D03*
X126850000Y-83450000D03*
X125150000Y-83450000D03*
%TD*%
%TO.C,U101*%
X157150000Y-52550000D03*
X158850000Y-52550000D03*
X158850000Y-51450000D03*
X157150000Y-51450000D03*
%TD*%
%TO.C,U295*%
X149150000Y-100550000D03*
X150850000Y-100550000D03*
X150850000Y-99450000D03*
X149150000Y-99450000D03*
%TD*%
%TO.C,U162*%
X105150000Y-64550000D03*
X106850000Y-64550000D03*
X106850000Y-63450000D03*
X105150000Y-63450000D03*
%TD*%
%TO.C,U230*%
X153150000Y-84530000D03*
X154850000Y-84530000D03*
X154850000Y-83430000D03*
X153150000Y-83430000D03*
%TD*%
%TO.C,U249*%
X141150000Y-88550000D03*
X142850000Y-88550000D03*
X142850000Y-87450000D03*
X141150000Y-87450000D03*
%TD*%
%TO.C,U304*%
X113150000Y-100550000D03*
X114850000Y-100550000D03*
X114850000Y-99450000D03*
X113150000Y-99450000D03*
%TD*%
%TO.C,U234*%
X137150000Y-84550000D03*
X138850000Y-84550000D03*
X138850000Y-83450000D03*
X137150000Y-83450000D03*
%TD*%
%TO.C,U131*%
X101150000Y-56550000D03*
X102850000Y-56550000D03*
X102850000Y-55450000D03*
X101150000Y-55450000D03*
%TD*%
%TO.C,U321*%
X109150000Y-104550000D03*
X110850000Y-104550000D03*
X110850000Y-103450000D03*
X109150000Y-103450000D03*
%TD*%
%TO.C,U262*%
X153150000Y-92550000D03*
X154850000Y-92550000D03*
X154850000Y-91450000D03*
X153150000Y-91450000D03*
%TD*%
%TO.C,U170*%
X137150000Y-68550000D03*
X138850000Y-68550000D03*
X138850000Y-67450000D03*
X137150000Y-67450000D03*
%TD*%
%TO.C,U269*%
X125150000Y-92550000D03*
X126850000Y-92550000D03*
X126850000Y-91450000D03*
X125150000Y-91450000D03*
%TD*%
%TO.C,U218*%
X137150000Y-80550000D03*
X138850000Y-80550000D03*
X138850000Y-79450000D03*
X137150000Y-79450000D03*
%TD*%
%TO.C,U129*%
X109150000Y-56550000D03*
X110850000Y-56550000D03*
X110850000Y-55450000D03*
X109150000Y-55450000D03*
%TD*%
%TO.C,U103*%
X149150000Y-52550000D03*
X150850000Y-52550000D03*
X150850000Y-51450000D03*
X149150000Y-51450000D03*
%TD*%
%TO.C,U302*%
X121150000Y-100550000D03*
X122850000Y-100550000D03*
X122850000Y-99450000D03*
X121150000Y-99450000D03*
%TD*%
%TO.C,U228*%
X161150000Y-84550000D03*
X162850000Y-84550000D03*
X162850000Y-83450000D03*
X161150000Y-83450000D03*
%TD*%
%TO.C,U329*%
X141150000Y-108550000D03*
X142850000Y-108550000D03*
X142850000Y-107450000D03*
X141150000Y-107450000D03*
%TD*%
%TO.C,U192*%
X113150000Y-72550000D03*
X114850000Y-72550000D03*
X114850000Y-71450000D03*
X113150000Y-71450000D03*
%TD*%
%TO.C,U314*%
X137150000Y-104550000D03*
X138850000Y-104550000D03*
X138850000Y-103450000D03*
X137150000Y-103450000D03*
%TD*%
%TO.C,U245*%
X157150000Y-88550000D03*
X158850000Y-88550000D03*
X158850000Y-87450000D03*
X157150000Y-87450000D03*
%TD*%
%TO.C,U168*%
X145150000Y-68550000D03*
X146850000Y-68550000D03*
X146850000Y-67450000D03*
X145150000Y-67450000D03*
%TD*%
%TO.C,U150*%
X153150000Y-64550000D03*
X154850000Y-64550000D03*
X154850000Y-63450000D03*
X153150000Y-63450000D03*
%TD*%
%TO.C,U166*%
X153150000Y-68550000D03*
X154850000Y-68550000D03*
X154850000Y-67450000D03*
X153150000Y-67450000D03*
%TD*%
%TO.C,U121*%
X141150000Y-56550000D03*
X142850000Y-56550000D03*
X142850000Y-55450000D03*
X141150000Y-55450000D03*
%TD*%
%TO.C,U344*%
X145150000Y-112550000D03*
X146850000Y-112550000D03*
X146850000Y-111450000D03*
X145150000Y-111450000D03*
%TD*%
%TO.C,U280*%
X145150000Y-96550000D03*
X146850000Y-96550000D03*
X146850000Y-95450000D03*
X145150000Y-95450000D03*
%TD*%
%TO.C,U179*%
X101150000Y-68550000D03*
X102850000Y-68550000D03*
X102850000Y-67450000D03*
X101150000Y-67450000D03*
%TD*%
%TO.C,U316*%
X129150000Y-104550000D03*
X130850000Y-104550000D03*
X130850000Y-103450000D03*
X129150000Y-103450000D03*
%TD*%
%TO.C,U272*%
X113150000Y-92550000D03*
X114850000Y-92550000D03*
X114850000Y-91450000D03*
X113150000Y-91450000D03*
%TD*%
%TO.C,U293*%
X157150000Y-100550000D03*
X158850000Y-100550000D03*
X158850000Y-99450000D03*
X157150000Y-99450000D03*
%TD*%
%TO.C,U167*%
X149150000Y-68550000D03*
X150850000Y-68550000D03*
X150850000Y-67450000D03*
X149150000Y-67450000D03*
%TD*%
%TO.C,U270*%
X121150000Y-92550000D03*
X122850000Y-92550000D03*
X122850000Y-91450000D03*
X121150000Y-91450000D03*
%TD*%
%TO.C,U263*%
X149150000Y-92550000D03*
X150850000Y-92550000D03*
X150850000Y-91450000D03*
X149150000Y-91450000D03*
%TD*%
%TO.C,U186*%
X137150000Y-72550000D03*
X138850000Y-72550000D03*
X138850000Y-71450000D03*
X137150000Y-71450000D03*
%TD*%
%TO.C,U149*%
X157150000Y-64550000D03*
X158850000Y-64550000D03*
X158850000Y-63450000D03*
X157150000Y-63450000D03*
%TD*%
%TO.C,U283*%
X133150000Y-96550000D03*
X134850000Y-96550000D03*
X134850000Y-95450000D03*
X133150000Y-95450000D03*
%TD*%
%TO.C,U240*%
X113150000Y-84550000D03*
X114850000Y-84550000D03*
X114850000Y-83450000D03*
X113150000Y-83450000D03*
%TD*%
%TO.C,U339*%
X101150000Y-108550000D03*
X102850000Y-108550000D03*
X102850000Y-107450000D03*
X101150000Y-107450000D03*
%TD*%
%TO.C,U301*%
X125150000Y-100550000D03*
X126850000Y-100550000D03*
X126850000Y-99450000D03*
X125150000Y-99450000D03*
%TD*%
%TO.C,U199*%
X149150000Y-76550000D03*
X150850000Y-76550000D03*
X150850000Y-75450000D03*
X149150000Y-75450000D03*
%TD*%
%TO.C,U326*%
X153150000Y-108550000D03*
X154850000Y-108550000D03*
X154850000Y-107450000D03*
X153150000Y-107450000D03*
%TD*%
%TO.C,U143*%
X117150000Y-60550000D03*
X118850000Y-60550000D03*
X118850000Y-59450000D03*
X117150000Y-59450000D03*
%TD*%
%TO.C,U140*%
X129150000Y-60550000D03*
X130850000Y-60550000D03*
X130850000Y-59450000D03*
X129150000Y-59450000D03*
%TD*%
%TO.C,U305*%
X109150000Y-100550000D03*
X110850000Y-100550000D03*
X110850000Y-99450000D03*
X109150000Y-99450000D03*
%TD*%
%TO.C,U311*%
X149150000Y-104550000D03*
X150850000Y-104550000D03*
X150850000Y-103450000D03*
X149150000Y-103450000D03*
%TD*%
%TO.C,U148*%
X161150000Y-64550000D03*
X162850000Y-64550000D03*
X162850000Y-63450000D03*
X161150000Y-63450000D03*
%TD*%
%TO.C,U318*%
X121150000Y-104550000D03*
X122850000Y-104550000D03*
X122850000Y-103450000D03*
X121150000Y-103450000D03*
%TD*%
%TO.C,U246*%
X153150000Y-88550000D03*
X154850000Y-88550000D03*
X154850000Y-87450000D03*
X153150000Y-87450000D03*
%TD*%
%TO.C,U173*%
X125150000Y-68550000D03*
X126850000Y-68550000D03*
X126850000Y-67450000D03*
X125150000Y-67450000D03*
%TD*%
%TO.C,U325*%
X157150000Y-108550000D03*
X158850000Y-108550000D03*
X158850000Y-107450000D03*
X157150000Y-107450000D03*
%TD*%
%TO.C,U257*%
X109150000Y-88550000D03*
X110850000Y-88550000D03*
X110850000Y-87450000D03*
X109150000Y-87450000D03*
%TD*%
%TO.C,U349*%
X125150000Y-112550000D03*
X126850000Y-112550000D03*
X126850000Y-111450000D03*
X125150000Y-111450000D03*
%TD*%
%TO.C,U222*%
X121150000Y-80550000D03*
X122850000Y-80550000D03*
X122850000Y-79450000D03*
X121150000Y-79450000D03*
%TD*%
%TO.C,U322*%
X105150000Y-104550000D03*
X106850000Y-104550000D03*
X106850000Y-103450000D03*
X105150000Y-103450000D03*
%TD*%
%TO.C,U108*%
X129150000Y-52550000D03*
X130850000Y-52550000D03*
X130850000Y-51450000D03*
X129150000Y-51450000D03*
%TD*%
%TO.C,U241*%
X109150000Y-84550000D03*
X110850000Y-84550000D03*
X110850000Y-83450000D03*
X109150000Y-83450000D03*
%TD*%
%TO.C,U346*%
X137150000Y-112550000D03*
X138850000Y-112550000D03*
X138850000Y-111450000D03*
X137150000Y-111450000D03*
%TD*%
%TO.C,U268*%
X129150000Y-92550000D03*
X130850000Y-92550000D03*
X130850000Y-91450000D03*
X129150000Y-91450000D03*
%TD*%
%TO.C,U145*%
X109150000Y-60550000D03*
X110850000Y-60550000D03*
X110850000Y-59450000D03*
X109150000Y-59450000D03*
%TD*%
%TO.C,U185*%
X141150000Y-72550000D03*
X142850000Y-72550000D03*
X142850000Y-71450000D03*
X141150000Y-71450000D03*
%TD*%
%TO.C,U291*%
X101150000Y-96550000D03*
X102850000Y-96550000D03*
X102850000Y-95450000D03*
X101150000Y-95450000D03*
%TD*%
%TO.C,U161*%
X109150000Y-64550000D03*
X110850000Y-64550000D03*
X110850000Y-63450000D03*
X109150000Y-63450000D03*
%TD*%
%TO.C,U288*%
X113150000Y-96550000D03*
X114850000Y-96550000D03*
X114850000Y-95450000D03*
X113150000Y-95450000D03*
%TD*%
%TO.C,U196*%
X161150000Y-76550000D03*
X162850000Y-76550000D03*
X162850000Y-75450000D03*
X161150000Y-75450000D03*
%TD*%
%TO.C,U217*%
X141150000Y-80550000D03*
X142850000Y-80550000D03*
X142850000Y-79450000D03*
X141150000Y-79450000D03*
%TD*%
%TO.C,U276*%
X161150000Y-96550000D03*
X162850000Y-96550000D03*
X162850000Y-95450000D03*
X161150000Y-95450000D03*
%TD*%
%TO.C,U175*%
X117150000Y-68550000D03*
X118850000Y-68550000D03*
X118850000Y-67450000D03*
X117150000Y-67450000D03*
%TD*%
%TO.C,U209*%
X109150000Y-76550000D03*
X110850000Y-76550000D03*
X110850000Y-75450000D03*
X109150000Y-75450000D03*
%TD*%
%TO.C,U279*%
X149150000Y-96550000D03*
X150850000Y-96550000D03*
X150850000Y-95450000D03*
X149150000Y-95450000D03*
%TD*%
%TO.C,U153*%
X141150000Y-64550000D03*
X142850000Y-64550000D03*
X142850000Y-63450000D03*
X141150000Y-63450000D03*
%TD*%
%TO.C,U176*%
X113150000Y-68550000D03*
X114850000Y-68550000D03*
X114850000Y-67450000D03*
X113150000Y-67450000D03*
%TD*%
%TO.C,U255*%
X117150000Y-88550000D03*
X118850000Y-88550000D03*
X118850000Y-87450000D03*
X117150000Y-87450000D03*
%TD*%
%TO.C,U285*%
X125150000Y-96550000D03*
X126850000Y-96550000D03*
X126850000Y-95450000D03*
X125150000Y-95450000D03*
%TD*%
%TO.C,U235*%
X133150000Y-84550000D03*
X134850000Y-84550000D03*
X134850000Y-83450000D03*
X133150000Y-83450000D03*
%TD*%
%TO.C,U102*%
X153150000Y-52550000D03*
X154850000Y-52550000D03*
X154850000Y-51450000D03*
X153150000Y-51450000D03*
%TD*%
%TO.C,U138*%
X137150000Y-60550000D03*
X138850000Y-60550000D03*
X138850000Y-59450000D03*
X137150000Y-59450000D03*
%TD*%
%TO.C,U134*%
X153150000Y-60550000D03*
X154850000Y-60550000D03*
X154850000Y-59450000D03*
X153150000Y-59450000D03*
%TD*%
%TO.C,U105*%
X141150000Y-52550000D03*
X142850000Y-52550000D03*
X142850000Y-51450000D03*
X141150000Y-51450000D03*
%TD*%
%TO.C,U242*%
X105150000Y-84550000D03*
X106850000Y-84550000D03*
X106850000Y-83450000D03*
X105150000Y-83450000D03*
%TD*%
%TO.C,U133*%
X157150000Y-60550000D03*
X158850000Y-60550000D03*
X158850000Y-59450000D03*
X157150000Y-59450000D03*
%TD*%
%TO.C,U307*%
X101150000Y-100550000D03*
X102850000Y-100550000D03*
X102850000Y-99450000D03*
X101150000Y-99450000D03*
%TD*%
%TO.C,U197*%
X157150000Y-76550000D03*
X158850000Y-76550000D03*
X158850000Y-75450000D03*
X157150000Y-75450000D03*
%TD*%
%TO.C,U195*%
X101150000Y-72550000D03*
X102850000Y-72550000D03*
X102850000Y-71450000D03*
X101150000Y-71450000D03*
%TD*%
%TO.C,U163*%
X101150000Y-64550000D03*
X102850000Y-64550000D03*
X102850000Y-63450000D03*
X101150000Y-63450000D03*
%TD*%
%TO.C,U132*%
X161150000Y-60550000D03*
X162850000Y-60550000D03*
X162850000Y-59450000D03*
X161150000Y-59450000D03*
%TD*%
%TO.C,U252*%
X129150000Y-88550000D03*
X130850000Y-88550000D03*
X130850000Y-87450000D03*
X129150000Y-87450000D03*
%TD*%
%TO.C,U180*%
X161150000Y-72550000D03*
X162850000Y-72550000D03*
X162850000Y-71450000D03*
X161150000Y-71450000D03*
%TD*%
%TO.C,U236*%
X129150000Y-84550000D03*
X130850000Y-84550000D03*
X130850000Y-83450000D03*
X129150000Y-83450000D03*
%TD*%
%TO.C,U202*%
X137150000Y-76550000D03*
X138850000Y-76550000D03*
X138850000Y-75450000D03*
X137150000Y-75450000D03*
%TD*%
%TO.C,U225*%
X109150000Y-80550000D03*
X110850000Y-80550000D03*
X110850000Y-79450000D03*
X109150000Y-79450000D03*
%TD*%
%TO.C,U330*%
X137150000Y-108550000D03*
X138850000Y-108550000D03*
X138850000Y-107450000D03*
X137150000Y-107450000D03*
%TD*%
%TO.C,U156*%
X129150000Y-64550000D03*
X130850000Y-64550000D03*
X130850000Y-63450000D03*
X129150000Y-63450000D03*
%TD*%
%TO.C,U258*%
X105150000Y-88550000D03*
X106850000Y-88550000D03*
X106850000Y-87450000D03*
X105150000Y-87450000D03*
%TD*%
%TO.C,U259*%
X101150000Y-88550000D03*
X102850000Y-88550000D03*
X102850000Y-87450000D03*
X101150000Y-87450000D03*
%TD*%
%TO.C,U233*%
X141150000Y-84550000D03*
X142850000Y-84550000D03*
X142850000Y-83450000D03*
X141150000Y-83450000D03*
%TD*%
%TO.C,U308*%
X161150000Y-104550000D03*
X162850000Y-104550000D03*
X162850000Y-103450000D03*
X161150000Y-103450000D03*
%TD*%
%TO.C,U109*%
X125150000Y-52550000D03*
X126850000Y-52550000D03*
X126850000Y-51450000D03*
X125150000Y-51450000D03*
%TD*%
%TO.C,U104*%
X145150000Y-52550000D03*
X146850000Y-52550000D03*
X146850000Y-51450000D03*
X145150000Y-51450000D03*
%TD*%
%TO.C,U342*%
X153150000Y-112550000D03*
X154850000Y-112550000D03*
X154850000Y-111450000D03*
X153150000Y-111450000D03*
%TD*%
%TO.C,U137*%
X141150000Y-60550000D03*
X142850000Y-60550000D03*
X142850000Y-59450000D03*
X141150000Y-59450000D03*
%TD*%
%TO.C,U281*%
X141150000Y-96550000D03*
X142850000Y-96550000D03*
X142850000Y-95450000D03*
X141150000Y-95450000D03*
%TD*%
%TO.C,U200*%
X145150000Y-76550000D03*
X146850000Y-76550000D03*
X146850000Y-75450000D03*
X145150000Y-75450000D03*
%TD*%
%TO.C,U289*%
X109150000Y-96550000D03*
X110850000Y-96550000D03*
X110850000Y-95450000D03*
X109150000Y-95450000D03*
%TD*%
%TO.C,U139*%
X133150000Y-60550000D03*
X134850000Y-60550000D03*
X134850000Y-59450000D03*
X133150000Y-59450000D03*
%TD*%
%TO.C,U226*%
X105150000Y-80550000D03*
X106850000Y-80550000D03*
X106850000Y-79450000D03*
X105150000Y-79450000D03*
%TD*%
%TO.C,U204*%
X129150000Y-76550000D03*
X130850000Y-76550000D03*
X130850000Y-75450000D03*
X129150000Y-75450000D03*
%TD*%
%TO.C,U315*%
X133150000Y-104550000D03*
X134850000Y-104550000D03*
X134850000Y-103450000D03*
X133150000Y-103450000D03*
%TD*%
%TO.C,U178*%
X105150000Y-68550000D03*
X106850000Y-68550000D03*
X106850000Y-67450000D03*
X105150000Y-67450000D03*
%TD*%
%TO.C,U337*%
X109150000Y-108550000D03*
X110850000Y-108550000D03*
X110850000Y-107450000D03*
X109150000Y-107450000D03*
%TD*%
%TO.C,U107*%
X133150000Y-52550000D03*
X134850000Y-52550000D03*
X134850000Y-51450000D03*
X133150000Y-51450000D03*
%TD*%
%TO.C,U312*%
X145150000Y-104550000D03*
X146850000Y-104550000D03*
X146850000Y-103450000D03*
X145150000Y-103450000D03*
%TD*%
%TO.C,U267*%
X133150000Y-92550000D03*
X134850000Y-92550000D03*
X134850000Y-91450000D03*
X133150000Y-91450000D03*
%TD*%
%TO.C,U110*%
X121150000Y-52550000D03*
X122850000Y-52550000D03*
X122850000Y-51450000D03*
X121150000Y-51450000D03*
%TD*%
%TO.C,U213*%
X157150000Y-80550000D03*
X158850000Y-80550000D03*
X158850000Y-79450000D03*
X157150000Y-79450000D03*
%TD*%
%TO.C,U309*%
X157150000Y-104550000D03*
X158850000Y-104550000D03*
X158850000Y-103450000D03*
X157150000Y-103450000D03*
%TD*%
%TO.C,U198*%
X153150000Y-76550000D03*
X154850000Y-76550000D03*
X154850000Y-75450000D03*
X153150000Y-75450000D03*
%TD*%
%TO.C,U253*%
X125150000Y-88550000D03*
X126850000Y-88550000D03*
X126850000Y-87450000D03*
X125150000Y-87450000D03*
%TD*%
%TO.C,U282*%
X137150000Y-96550000D03*
X138850000Y-96550000D03*
X138850000Y-95450000D03*
X137150000Y-95450000D03*
%TD*%
%TO.C,U183*%
X149150000Y-72550000D03*
X150850000Y-72550000D03*
X150850000Y-71450000D03*
X149150000Y-71450000D03*
%TD*%
%TO.C,U250*%
X137150000Y-88550000D03*
X138850000Y-88550000D03*
X138850000Y-87450000D03*
X137150000Y-87450000D03*
%TD*%
%TO.C,U232*%
X145150000Y-84530000D03*
X146850000Y-84530000D03*
X146850000Y-83430000D03*
X145150000Y-83430000D03*
%TD*%
%TO.C,U117*%
X157150000Y-56550000D03*
X158850000Y-56550000D03*
X158850000Y-55450000D03*
X157150000Y-55450000D03*
%TD*%
%TO.C,U142*%
X121150000Y-60550000D03*
X122850000Y-60550000D03*
X122850000Y-59450000D03*
X121150000Y-59450000D03*
%TD*%
%TO.C,U136*%
X145150000Y-60550000D03*
X146850000Y-60550000D03*
X146850000Y-59450000D03*
X145150000Y-59450000D03*
%TD*%
%TO.C,U265*%
X141150000Y-92550000D03*
X142850000Y-92550000D03*
X142850000Y-91450000D03*
X141150000Y-91450000D03*
%TD*%
%TO.C,U273*%
X109150000Y-92550000D03*
X110850000Y-92550000D03*
X110850000Y-91450000D03*
X109150000Y-91450000D03*
%TD*%
%TO.C,U220*%
X129150000Y-80550000D03*
X130850000Y-80550000D03*
X130850000Y-79450000D03*
X129150000Y-79450000D03*
%TD*%
%TO.C,U158*%
X121150000Y-64550000D03*
X122850000Y-64550000D03*
X122850000Y-63450000D03*
X121150000Y-63450000D03*
%TD*%
%TO.C,U144*%
X113150000Y-60550000D03*
X114850000Y-60550000D03*
X114850000Y-59450000D03*
X113150000Y-59450000D03*
%TD*%
%TO.C,U239*%
X117150000Y-84550000D03*
X118850000Y-84550000D03*
X118850000Y-83450000D03*
X117150000Y-83450000D03*
%TD*%
%TO.C,U135*%
X149150000Y-60550000D03*
X150850000Y-60550000D03*
X150850000Y-59450000D03*
X149150000Y-59450000D03*
%TD*%
%TO.C,U264*%
X145150000Y-92550000D03*
X146850000Y-92550000D03*
X146850000Y-91450000D03*
X145150000Y-91450000D03*
%TD*%
%TO.C,U188*%
X129150000Y-72550000D03*
X130850000Y-72550000D03*
X130850000Y-71450000D03*
X129150000Y-71450000D03*
%TD*%
%TO.C,U146*%
X105150000Y-60550000D03*
X106850000Y-60550000D03*
X106850000Y-59450000D03*
X105150000Y-59450000D03*
%TD*%
%TO.C,U207*%
X117150000Y-76550000D03*
X118850000Y-76550000D03*
X118850000Y-75450000D03*
X117150000Y-75450000D03*
%TD*%
%TO.C,U223*%
X117150000Y-80550000D03*
X118850000Y-80550000D03*
X118850000Y-79450000D03*
X117150000Y-79450000D03*
%TD*%
%TO.C,U164*%
X161150000Y-68550000D03*
X162850000Y-68550000D03*
X162850000Y-67450000D03*
X161150000Y-67450000D03*
%TD*%
%TO.C,U124*%
X129150000Y-56550000D03*
X130850000Y-56550000D03*
X130850000Y-55450000D03*
X129150000Y-55450000D03*
%TD*%
%TO.C,U201*%
X141150000Y-76550000D03*
X142850000Y-76550000D03*
X142850000Y-75450000D03*
X141150000Y-75450000D03*
%TD*%
%TO.C,U352*%
X113150000Y-112550000D03*
X114850000Y-112550000D03*
X114850000Y-111450000D03*
X113150000Y-111450000D03*
%TD*%
%TO.C,U333*%
X125150000Y-108550000D03*
X126850000Y-108550000D03*
X126850000Y-107450000D03*
X125150000Y-107450000D03*
%TD*%
%TO.C,U340*%
X161150000Y-112550000D03*
X162850000Y-112550000D03*
X162850000Y-111450000D03*
X161150000Y-111450000D03*
%TD*%
%TO.C,U111*%
X117150000Y-52550000D03*
X118850000Y-52550000D03*
X118850000Y-51450000D03*
X117150000Y-51450000D03*
%TD*%
%TO.C,U328*%
X145150000Y-108550000D03*
X146850000Y-108550000D03*
X146850000Y-107450000D03*
X145150000Y-107450000D03*
%TD*%
%TO.C,U177*%
X109150000Y-68550000D03*
X110850000Y-68550000D03*
X110850000Y-67450000D03*
X109150000Y-67450000D03*
%TD*%
%TO.C,U341*%
X157150000Y-112550000D03*
X158850000Y-112550000D03*
X158850000Y-111450000D03*
X157150000Y-111450000D03*
%TD*%
%TO.C,U224*%
X113150000Y-80550000D03*
X114850000Y-80550000D03*
X114850000Y-79450000D03*
X113150000Y-79450000D03*
%TD*%
%TO.C,U260*%
X161150000Y-92550000D03*
X162850000Y-92550000D03*
X162850000Y-91450000D03*
X161150000Y-91450000D03*
%TD*%
%TO.C,U115*%
X101150000Y-52550000D03*
X102850000Y-52550000D03*
X102850000Y-51450000D03*
X101150000Y-51450000D03*
%TD*%
%TO.C,U248*%
X145150000Y-88550000D03*
X146850000Y-88550000D03*
X146850000Y-87450000D03*
X145150000Y-87450000D03*
%TD*%
%TO.C,U127*%
X117150000Y-56550000D03*
X118850000Y-56550000D03*
X118850000Y-55450000D03*
X117150000Y-55450000D03*
%TD*%
%TO.C,U151*%
X149150000Y-64550000D03*
X150850000Y-64550000D03*
X150850000Y-63450000D03*
X149150000Y-63450000D03*
%TD*%
%TO.C,U294*%
X153150000Y-100550000D03*
X154850000Y-100550000D03*
X154850000Y-99450000D03*
X153150000Y-99450000D03*
%TD*%
%TO.C,U152*%
X145150000Y-64550000D03*
X146850000Y-64550000D03*
X146850000Y-63450000D03*
X145150000Y-63450000D03*
%TD*%
%TO.C,U290*%
X105150000Y-96550000D03*
X106850000Y-96550000D03*
X106850000Y-95450000D03*
X105150000Y-95450000D03*
%TD*%
%TO.C,U296*%
X145150000Y-100550000D03*
X146850000Y-100550000D03*
X146850000Y-99450000D03*
X145150000Y-99450000D03*
%TD*%
%TO.C,U284*%
X129150000Y-96550000D03*
X130850000Y-96550000D03*
X130850000Y-95450000D03*
X129150000Y-95450000D03*
%TD*%
%TO.C,U244*%
X161150000Y-88550000D03*
X162850000Y-88550000D03*
X162850000Y-87450000D03*
X161150000Y-87450000D03*
%TD*%
%TO.C,U231*%
X149150000Y-84530000D03*
X150850000Y-84530000D03*
X150850000Y-83430000D03*
X149150000Y-83430000D03*
%TD*%
%TO.C,U120*%
X145150000Y-56550000D03*
X146850000Y-56550000D03*
X146850000Y-55450000D03*
X145150000Y-55450000D03*
%TD*%
%TO.C,U203*%
X133150000Y-76550000D03*
X134850000Y-76550000D03*
X134850000Y-75450000D03*
X133150000Y-75450000D03*
%TD*%
%TO.C,U114*%
X105150000Y-52550000D03*
X106850000Y-52550000D03*
X106850000Y-51450000D03*
X105150000Y-51450000D03*
%TD*%
%TO.C,U191*%
X117150000Y-72550000D03*
X118850000Y-72550000D03*
X118850000Y-71450000D03*
X117150000Y-71450000D03*
%TD*%
%TO.C,U327*%
X149150000Y-108550000D03*
X150850000Y-108550000D03*
X150850000Y-107450000D03*
X149150000Y-107450000D03*
%TD*%
%TO.C,U332*%
X129150000Y-108550000D03*
X130850000Y-108550000D03*
X130850000Y-107450000D03*
X129150000Y-107450000D03*
%TD*%
%TO.C,U348*%
X129150000Y-112550000D03*
X130850000Y-112550000D03*
X130850000Y-111450000D03*
X129150000Y-111450000D03*
%TD*%
%TO.C,U119*%
X149150000Y-56550000D03*
X150850000Y-56550000D03*
X150850000Y-55450000D03*
X149150000Y-55450000D03*
%TD*%
%TO.C,U171*%
X133150000Y-68550000D03*
X134850000Y-68550000D03*
X134850000Y-67450000D03*
X133150000Y-67450000D03*
%TD*%
%TO.C,U355*%
X101150000Y-112550000D03*
X102850000Y-112550000D03*
X102850000Y-111450000D03*
X101150000Y-111450000D03*
%TD*%
%TO.C,U187*%
X133150000Y-72550000D03*
X134850000Y-72550000D03*
X134850000Y-71450000D03*
X133150000Y-71450000D03*
%TD*%
%TO.C,U141*%
X125150000Y-60550000D03*
X126850000Y-60550000D03*
X126850000Y-59450000D03*
X125150000Y-59450000D03*
%TD*%
%TO.C,U211*%
X101150000Y-76550000D03*
X102850000Y-76550000D03*
X102850000Y-75450000D03*
X101150000Y-75450000D03*
%TD*%
%TO.C,U189*%
X125150000Y-72550000D03*
X126850000Y-72550000D03*
X126850000Y-71450000D03*
X125150000Y-71450000D03*
%TD*%
%TO.C,U154*%
X137150000Y-64550000D03*
X138850000Y-64550000D03*
X138850000Y-63450000D03*
X137150000Y-63450000D03*
%TD*%
%TO.C,U292*%
X161150000Y-100550000D03*
X162850000Y-100550000D03*
X162850000Y-99450000D03*
X161150000Y-99450000D03*
%TD*%
%TO.C,U130*%
X105150000Y-56550000D03*
X106850000Y-56550000D03*
X106850000Y-55450000D03*
X105150000Y-55450000D03*
%TD*%
%TO.C,U194*%
X105150000Y-72550000D03*
X106850000Y-72550000D03*
X106850000Y-71450000D03*
X105150000Y-71450000D03*
%TD*%
%TO.C,U182*%
X153150000Y-72550000D03*
X154850000Y-72550000D03*
X154850000Y-71450000D03*
X153150000Y-71450000D03*
%TD*%
%TO.C,U159*%
X117150000Y-64550000D03*
X118850000Y-64550000D03*
X118850000Y-63450000D03*
X117150000Y-63450000D03*
%TD*%
%TO.C,U128*%
X113150000Y-56550000D03*
X114850000Y-56550000D03*
X114850000Y-55450000D03*
X113150000Y-55450000D03*
%TD*%
%TO.C,U238*%
X121150000Y-84550000D03*
X122850000Y-84550000D03*
X122850000Y-83450000D03*
X121150000Y-83450000D03*
%TD*%
%TO.C,U181*%
X157150000Y-72550000D03*
X158850000Y-72550000D03*
X158850000Y-71450000D03*
X157150000Y-71450000D03*
%TD*%
%TO.C,U208*%
X113150000Y-76550000D03*
X114850000Y-76550000D03*
X114850000Y-75450000D03*
X113150000Y-75450000D03*
%TD*%
%TO.C,U354*%
X105150000Y-112550000D03*
X106850000Y-112550000D03*
X106850000Y-111450000D03*
X105150000Y-111450000D03*
%TD*%
%TO.C,U338*%
X105150000Y-108550000D03*
X106850000Y-108550000D03*
X106850000Y-107450000D03*
X105150000Y-107450000D03*
%TD*%
%TO.C,U334*%
X121150000Y-108550000D03*
X122850000Y-108550000D03*
X122850000Y-107450000D03*
X121150000Y-107450000D03*
%TD*%
%TO.C,U297*%
X141150000Y-100550000D03*
X142850000Y-100550000D03*
X142850000Y-99450000D03*
X141150000Y-99450000D03*
%TD*%
%TO.C,U126*%
X121150000Y-56550000D03*
X122850000Y-56550000D03*
X122850000Y-55450000D03*
X121150000Y-55450000D03*
%TD*%
%TO.C,U320*%
X113150000Y-104550000D03*
X114850000Y-104550000D03*
X114850000Y-103450000D03*
X113150000Y-103450000D03*
%TD*%
%TO.C,U310*%
X153150000Y-104550000D03*
X154850000Y-104550000D03*
X154850000Y-103450000D03*
X153150000Y-103450000D03*
%TD*%
%TO.C,U221*%
X125150000Y-80550000D03*
X126850000Y-80550000D03*
X126850000Y-79450000D03*
X125150000Y-79450000D03*
%TD*%
%TO.C,U275*%
X101150000Y-92550000D03*
X102850000Y-92550000D03*
X102850000Y-91450000D03*
X101150000Y-91450000D03*
%TD*%
%TO.C,U266*%
X137150000Y-92550000D03*
X138850000Y-92550000D03*
X138850000Y-91450000D03*
X137150000Y-91450000D03*
%TD*%
%TO.C,U184*%
X145150000Y-72550000D03*
X146850000Y-72550000D03*
X146850000Y-71450000D03*
X145150000Y-71450000D03*
%TD*%
%TO.C,U172*%
X129150000Y-68550000D03*
X130850000Y-68550000D03*
X130850000Y-67450000D03*
X129150000Y-67450000D03*
%TD*%
%TO.C,U303*%
X117150000Y-100550000D03*
X118850000Y-100550000D03*
X118850000Y-99450000D03*
X117150000Y-99450000D03*
%TD*%
%TO.C,U190*%
X121150000Y-72550000D03*
X122850000Y-72550000D03*
X122850000Y-71450000D03*
X121150000Y-71450000D03*
%TD*%
%TO.C,U300*%
X129150000Y-100550000D03*
X130850000Y-100550000D03*
X130850000Y-99450000D03*
X129150000Y-99450000D03*
%TD*%
%TO.C,U216*%
X145150000Y-80550000D03*
X146850000Y-80550000D03*
X146850000Y-79450000D03*
X145150000Y-79450000D03*
%TD*%
%TO.C,U125*%
X125150000Y-56550000D03*
X126850000Y-56550000D03*
X126850000Y-55450000D03*
X125150000Y-55450000D03*
%TD*%
%TO.C,U343*%
X149150000Y-112550000D03*
X150850000Y-112550000D03*
X150850000Y-111450000D03*
X149150000Y-111450000D03*
%TD*%
%TO.C,U306*%
X105150000Y-100550000D03*
X106850000Y-100550000D03*
X106850000Y-99450000D03*
X105150000Y-99450000D03*
%TD*%
%TO.C,U214*%
X153150000Y-80550000D03*
X154850000Y-80550000D03*
X154850000Y-79450000D03*
X153150000Y-79450000D03*
%TD*%
%TO.C,U254*%
X121150000Y-88550000D03*
X122850000Y-88550000D03*
X122850000Y-87450000D03*
X121150000Y-87450000D03*
%TD*%
%TO.C,U193*%
X109150000Y-72550000D03*
X110850000Y-72550000D03*
X110850000Y-71450000D03*
X109150000Y-71450000D03*
%TD*%
%TO.C,U336*%
X113150000Y-108550000D03*
X114850000Y-108550000D03*
X114850000Y-107450000D03*
X113150000Y-107450000D03*
%TD*%
%TO.C,U351*%
X117150000Y-112550000D03*
X118850000Y-112550000D03*
X118850000Y-111450000D03*
X117150000Y-111450000D03*
%TD*%
%TO.C,U100*%
X161150000Y-52550000D03*
X162850000Y-52550000D03*
X162850000Y-51450000D03*
X161150000Y-51450000D03*
%TD*%
%TO.C,U251*%
X133150000Y-88550000D03*
X134850000Y-88550000D03*
X134850000Y-87450000D03*
X133150000Y-87450000D03*
%TD*%
%TO.C,U112*%
X113150000Y-52550000D03*
X114850000Y-52550000D03*
X114850000Y-51450000D03*
X113150000Y-51450000D03*
%TD*%
%TO.C,U317*%
X125150000Y-104550000D03*
X126850000Y-104550000D03*
X126850000Y-103450000D03*
X125150000Y-103450000D03*
%TD*%
%TO.C,U347*%
X133150000Y-112550000D03*
X134850000Y-112550000D03*
X134850000Y-111450000D03*
X133150000Y-111450000D03*
%TD*%
%TO.C,U247*%
X149150000Y-88550000D03*
X150850000Y-88550000D03*
X150850000Y-87450000D03*
X149150000Y-87450000D03*
%TD*%
%TO.C,U313*%
X141150000Y-104550000D03*
X142850000Y-104550000D03*
X142850000Y-103450000D03*
X141150000Y-103450000D03*
%TD*%
%TO.C,U206*%
X121150000Y-76550000D03*
X122850000Y-76550000D03*
X122850000Y-75450000D03*
X121150000Y-75450000D03*
%TD*%
%TO.C,U345*%
X141150000Y-112550000D03*
X142850000Y-112550000D03*
X142850000Y-111450000D03*
X141150000Y-111450000D03*
%TD*%
%TO.C,U147*%
X101150000Y-60550000D03*
X102850000Y-60550000D03*
X102850000Y-59450000D03*
X101150000Y-59450000D03*
%TD*%
%TO.C,U106*%
X137150000Y-52550000D03*
X138850000Y-52550000D03*
X138850000Y-51450000D03*
X137150000Y-51450000D03*
%TD*%
%TO.C,U278*%
X153150000Y-96550000D03*
X154850000Y-96550000D03*
X154850000Y-95450000D03*
X153150000Y-95450000D03*
%TD*%
M02*
