%TF.GenerationSoftware,KiCad,Pcbnew,7.0.5*%
%TF.CreationDate,2023-09-21T19:27:35-05:00*%
%TF.ProjectId,KiCadPanel,4b694361-6450-4616-9e65-6c2e6b696361,rev?*%
%TF.SameCoordinates,Original*%
%TF.FileFunction,Paste,Top*%
%TF.FilePolarity,Positive*%
%FSLAX46Y46*%
G04 Gerber Fmt 4.6, Leading zero omitted, Abs format (unit mm)*
G04 Created by KiCad (PCBNEW 7.0.5) date 2023-09-21 19:27:35*
%MOMM*%
%LPD*%
G01*
G04 APERTURE LIST*
G04 Aperture macros list*
%AMRoundRect*
0 Rectangle with rounded corners*
0 $1 Rounding radius*
0 $2 $3 $4 $5 $6 $7 $8 $9 X,Y pos of 4 corners*
0 Add a 4 corners polygon primitive as box body*
4,1,4,$2,$3,$4,$5,$6,$7,$8,$9,$2,$3,0*
0 Add four circle primitives for the rounded corners*
1,1,$1+$1,$2,$3*
1,1,$1+$1,$4,$5*
1,1,$1+$1,$6,$7*
1,1,$1+$1,$8,$9*
0 Add four rect primitives between the rounded corners*
20,1,$1+$1,$2,$3,$4,$5,0*
20,1,$1+$1,$4,$5,$6,$7,0*
20,1,$1+$1,$6,$7,$8,$9,0*
20,1,$1+$1,$8,$9,$2,$3,0*%
%AMFreePoly0*
4,1,57,0.551631,1.457485,0.914166,1.381995,1.267029,1.269663,1.606485,1.121676,1.928943,0.939600,2.230991,0.725362,2.509432,0.481229,2.761321,0.209783,2.983992,-0.086103,3.175089,-0.403297,3.332591,-0.738445,3.454830,-1.088000,3.540514,-1.448262,3.537939,-1.480472,3.537939,-1.500902,3.501612,-1.550902,3.462790,-1.563515,3.460270,-1.564714,3.459332,-1.564639,3.442833,-1.570000,
0.305123,-1.570000,0.290669,-1.565303,0.260743,-1.559618,0.199643,-1.530164,0.067389,-1.499975,-0.068267,-1.500075,-0.200478,-1.530457,-0.261534,-1.560000,-0.292740,-1.565976,-0.305123,-1.570000,-3.442833,-1.570000,-3.450447,-1.567525,-3.460833,-1.568367,-3.489070,-1.554976,-3.501612,-1.550902,-3.503687,-1.548045,-3.507605,-1.546188,-3.537021,-1.503595,-3.537151,-1.501986,-3.537939,-1.500902,
-3.537939,-1.492261,-3.541199,-1.452000,-3.455896,-1.091647,-3.334026,-0.741964,-3.176879,-0.406650,-2.986117,-0.089254,-2.763758,0.206867,-2.512156,0.478578,-2.233972,0.723006,-1.932151,0.937562,-1.609885,1.119978,-1.270586,1.268324,-0.917842,1.381029,-0.555386,1.456900,-0.187053,1.495136,0.183258,1.495332,0.551631,1.457485,0.551631,1.457485,$1*%
%AMFreePoly1*
4,1,57,-0.290669,1.565303,-0.260743,1.559618,-0.199644,1.530164,-0.067389,1.499975,0.068267,1.500075,0.200478,1.530457,0.261534,1.560000,0.292740,1.565976,0.305123,1.570000,3.442833,1.570000,3.450447,1.567525,3.460833,1.568367,3.489070,1.554976,3.501612,1.550902,3.503687,1.548045,3.507605,1.546188,3.537021,1.503595,3.537151,1.501986,3.537939,1.500902,3.537939,1.492261,
3.541199,1.452000,3.455896,1.091647,3.334026,0.741964,3.176879,0.406650,2.986117,0.089254,2.763758,-0.206867,2.512156,-0.478578,2.233972,-0.723006,1.932151,-0.937562,1.609885,-1.119978,1.270586,-1.268324,0.917842,-1.381029,0.555386,-1.456900,0.187053,-1.495136,-0.183258,-1.495332,-0.551631,-1.457485,-0.914166,-1.381995,-1.267029,-1.269663,-1.606485,-1.121676,-1.928943,-0.939600,
-2.230991,-0.725362,-2.509432,-0.481229,-2.761321,-0.209783,-2.983992,0.086103,-3.175089,0.403297,-3.332591,0.738445,-3.454830,1.088000,-3.540514,1.448262,-3.537939,1.480472,-3.537939,1.500902,-3.501612,1.550902,-3.462790,1.563515,-3.460270,1.564714,-3.459332,1.564639,-3.442833,1.570000,-0.305123,1.570000,-0.290669,1.565303,-0.290669,1.565303,$1*%
G04 Aperture macros list end*
%ADD10RoundRect,0.225000X0.225000X0.250000X-0.225000X0.250000X-0.225000X-0.250000X0.225000X-0.250000X0*%
%ADD11RoundRect,0.225000X-0.250000X0.225000X-0.250000X-0.225000X0.250000X-0.225000X0.250000X0.225000X0*%
%ADD12R,1.150000X0.600000*%
%ADD13FreePoly0,0.000000*%
%ADD14FreePoly1,0.000000*%
%ADD15R,1.522000X0.435000*%
%ADD16RoundRect,0.250000X-0.650000X0.325000X-0.650000X-0.325000X0.650000X-0.325000X0.650000X0.325000X0*%
%ADD17RoundRect,0.200000X0.200000X0.275000X-0.200000X0.275000X-0.200000X-0.275000X0.200000X-0.275000X0*%
%ADD18R,0.450000X1.475000*%
G04 APERTURE END LIST*
D10*
%TO.C,C19*%
X142470000Y-92450000D03*
X140920000Y-92450000D03*
%TD*%
D11*
%TO.C,C27*%
X151390000Y-106921000D03*
X151390000Y-108471000D03*
%TD*%
%TO.C,C21*%
X145130000Y-71485000D03*
X145130000Y-73035000D03*
%TD*%
D12*
%TO.C,IC18*%
X146960000Y-79132000D03*
X146960000Y-80082000D03*
X146960000Y-81032000D03*
X149560000Y-81032000D03*
X149560000Y-80082000D03*
X149560000Y-79132000D03*
%TD*%
D11*
%TO.C,C5*%
X151390000Y-99033000D03*
X151390000Y-100583000D03*
%TD*%
%TO.C,C3*%
X151390000Y-67481000D03*
X151390000Y-69031000D03*
%TD*%
D12*
%TO.C,IC5*%
X146960000Y-98862000D03*
X146960000Y-99812000D03*
X146960000Y-100762000D03*
X149560000Y-100762000D03*
X149560000Y-99812000D03*
X149560000Y-98862000D03*
%TD*%
D11*
%TO.C,C35*%
X151390000Y-95089000D03*
X151390000Y-96639000D03*
%TD*%
D13*
%TO.C,H102*%
X106500000Y-71900000D03*
D14*
X106500000Y-76100000D03*
%TD*%
D12*
%TO.C,IC4*%
X146960000Y-83078000D03*
X146960000Y-84028000D03*
X146960000Y-84978000D03*
X149560000Y-84978000D03*
X149560000Y-84028000D03*
X149560000Y-83078000D03*
%TD*%
D11*
%TO.C,C31*%
X145130000Y-106850000D03*
X145130000Y-108400000D03*
%TD*%
%TO.C,C20*%
X145130000Y-55655000D03*
X145130000Y-57205000D03*
%TD*%
D12*
%TO.C,IC3*%
X146960000Y-67294000D03*
X146960000Y-68244000D03*
X146960000Y-69194000D03*
X149560000Y-69194000D03*
X149560000Y-68244000D03*
X149560000Y-67294000D03*
%TD*%
D11*
%TO.C,C37*%
X145130000Y-63510000D03*
X145130000Y-65060000D03*
%TD*%
%TO.C,C38*%
X145130000Y-79260000D03*
X145130000Y-80810000D03*
%TD*%
D15*
%TO.C,IC10*%
X127490000Y-100334000D03*
X127490000Y-99700000D03*
X127490000Y-99064000D03*
X127490000Y-98430000D03*
X127490000Y-97794000D03*
X127490000Y-97160000D03*
X127490000Y-96524000D03*
X127490000Y-95890000D03*
X127490000Y-95254000D03*
X127490000Y-94620000D03*
X127490000Y-93984000D03*
X127490000Y-93350000D03*
X122062000Y-93350000D03*
X122062000Y-93984000D03*
X122062000Y-94620000D03*
X122062000Y-95254000D03*
X122062000Y-95890000D03*
X122062000Y-96524000D03*
X122062000Y-97160000D03*
X122062000Y-97794000D03*
X122062000Y-98430000D03*
X122062000Y-99064000D03*
X122062000Y-99700000D03*
X122062000Y-100334000D03*
%TD*%
D11*
%TO.C,C22*%
X145130000Y-87025000D03*
X145130000Y-88575000D03*
%TD*%
D16*
%TO.C,C6*%
X154080000Y-64435000D03*
X154080000Y-67385000D03*
%TD*%
D13*
%TO.C,H103*%
X106500000Y-87900000D03*
D14*
X106500000Y-92100000D03*
%TD*%
D11*
%TO.C,C26*%
X151390000Y-91145000D03*
X151390000Y-92695000D03*
%TD*%
%TO.C,C16*%
X151390000Y-87201000D03*
X151390000Y-88751000D03*
%TD*%
%TO.C,C28*%
X145130000Y-59575000D03*
X145130000Y-61125000D03*
%TD*%
D10*
%TO.C,C32*%
X112790000Y-89050000D03*
X111240000Y-89050000D03*
%TD*%
D11*
%TO.C,C17*%
X151390000Y-102977000D03*
X151390000Y-104527000D03*
%TD*%
%TO.C,C12*%
X145130000Y-83235000D03*
X145130000Y-84785000D03*
%TD*%
D12*
%TO.C,IC2*%
X146960000Y-51510000D03*
X146960000Y-52460000D03*
X146960000Y-53410000D03*
X149560000Y-53410000D03*
X149560000Y-52460000D03*
X149560000Y-51510000D03*
%TD*%
D17*
%TO.C,R3*%
X112840000Y-87390000D03*
X111190000Y-87390000D03*
%TD*%
D12*
%TO.C,IC14*%
X146960000Y-90970000D03*
X146960000Y-91920000D03*
X146960000Y-92870000D03*
X149560000Y-92870000D03*
X149560000Y-91920000D03*
X149560000Y-90970000D03*
%TD*%
D18*
%TO.C,IC11*%
X142890000Y-83374000D03*
X142240000Y-83374000D03*
X141590000Y-83374000D03*
X140940000Y-83374000D03*
X140290000Y-83374000D03*
X139640000Y-83374000D03*
X138990000Y-83374000D03*
X138340000Y-83374000D03*
X137690000Y-83374000D03*
X137040000Y-83374000D03*
X136390000Y-83374000D03*
X135740000Y-83374000D03*
X135740000Y-89250000D03*
X136390000Y-89250000D03*
X137040000Y-89250000D03*
X137690000Y-89250000D03*
X138340000Y-89250000D03*
X138990000Y-89250000D03*
X139640000Y-89250000D03*
X140290000Y-89250000D03*
X140940000Y-89250000D03*
X141590000Y-89250000D03*
X142240000Y-89250000D03*
X142890000Y-89250000D03*
%TD*%
D11*
%TO.C,C36*%
X151390000Y-110865000D03*
X151390000Y-112415000D03*
%TD*%
D12*
%TO.C,IC13*%
X146960000Y-75186000D03*
X146960000Y-76136000D03*
X146960000Y-77086000D03*
X149560000Y-77086000D03*
X149560000Y-76136000D03*
X149560000Y-75186000D03*
%TD*%
D10*
%TO.C,C18*%
X119760000Y-101030000D03*
X118210000Y-101030000D03*
%TD*%
D12*
%TO.C,IC7*%
X146960000Y-71240000D03*
X146960000Y-72190000D03*
X146960000Y-73140000D03*
X149560000Y-73140000D03*
X149560000Y-72190000D03*
X149560000Y-71240000D03*
%TD*%
%TO.C,IC9*%
X146960000Y-102808000D03*
X146960000Y-103758000D03*
X146960000Y-104708000D03*
X149560000Y-104708000D03*
X149560000Y-103758000D03*
X149560000Y-102808000D03*
%TD*%
D10*
%TO.C,C1*%
X127660000Y-112390000D03*
X126110000Y-112390000D03*
%TD*%
D16*
%TO.C,C7*%
X154330000Y-96575000D03*
X154330000Y-99525000D03*
%TD*%
D11*
%TO.C,C14*%
X151390000Y-55649000D03*
X151390000Y-57199000D03*
%TD*%
D12*
%TO.C,IC8*%
X146960000Y-87024000D03*
X146960000Y-87974000D03*
X146960000Y-88924000D03*
X149560000Y-88924000D03*
X149560000Y-87974000D03*
X149560000Y-87024000D03*
%TD*%
D13*
%TO.C,H101*%
X157500000Y-87900000D03*
D14*
X157500000Y-92100000D03*
%TD*%
D11*
%TO.C,C4*%
X151390000Y-83257000D03*
X151390000Y-84807000D03*
%TD*%
D12*
%TO.C,IC19*%
X146960000Y-94916000D03*
X146960000Y-95866000D03*
X146960000Y-96816000D03*
X149560000Y-96816000D03*
X149560000Y-95866000D03*
X149560000Y-94916000D03*
%TD*%
D11*
%TO.C,C33*%
X151390000Y-63537000D03*
X151390000Y-65087000D03*
%TD*%
D12*
%TO.C,IC17*%
X146960000Y-63348000D03*
X146960000Y-64298000D03*
X146960000Y-65248000D03*
X149560000Y-65248000D03*
X149560000Y-64298000D03*
X149560000Y-63348000D03*
%TD*%
D11*
%TO.C,C24*%
X151390000Y-59593000D03*
X151390000Y-61143000D03*
%TD*%
D15*
%TO.C,IC16*%
X120100000Y-89194000D03*
X120100000Y-88560000D03*
X120100000Y-87924000D03*
X120100000Y-87290000D03*
X120100000Y-86654000D03*
X120100000Y-86020000D03*
X120100000Y-85384000D03*
X120100000Y-84750000D03*
X120100000Y-84114000D03*
X120100000Y-83480000D03*
X120100000Y-82844000D03*
X120100000Y-82210000D03*
X114672000Y-82210000D03*
X114672000Y-82844000D03*
X114672000Y-83480000D03*
X114672000Y-84114000D03*
X114672000Y-84750000D03*
X114672000Y-85384000D03*
X114672000Y-86020000D03*
X114672000Y-86654000D03*
X114672000Y-87290000D03*
X114672000Y-87924000D03*
X114672000Y-88560000D03*
X114672000Y-89194000D03*
%TD*%
D12*
%TO.C,IC15*%
X146960000Y-106754000D03*
X146960000Y-107704000D03*
X146960000Y-108654000D03*
X149560000Y-108654000D03*
X149560000Y-107704000D03*
X149560000Y-106754000D03*
%TD*%
D11*
%TO.C,C40*%
X145130000Y-110865000D03*
X145130000Y-112415000D03*
%TD*%
%TO.C,C11*%
X145130000Y-67505000D03*
X145130000Y-69055000D03*
%TD*%
D12*
%TO.C,IC20*%
X146960000Y-110700000D03*
X146960000Y-111650000D03*
X146960000Y-112600000D03*
X149560000Y-112600000D03*
X149560000Y-111650000D03*
X149560000Y-110700000D03*
%TD*%
D11*
%TO.C,C2*%
X151390000Y-51705000D03*
X151390000Y-53255000D03*
%TD*%
%TO.C,C29*%
X145130000Y-75295000D03*
X145130000Y-76845000D03*
%TD*%
%TO.C,C34*%
X151390000Y-79313000D03*
X151390000Y-80863000D03*
%TD*%
D17*
%TO.C,R1*%
X127740000Y-110820000D03*
X126090000Y-110820000D03*
%TD*%
D11*
%TO.C,C15*%
X151390000Y-71425000D03*
X151390000Y-72975000D03*
%TD*%
D15*
%TO.C,IC1*%
X135264000Y-111642000D03*
X135264000Y-111008000D03*
X135264000Y-110372000D03*
X135264000Y-109738000D03*
X135264000Y-109102000D03*
X135264000Y-108468000D03*
X135264000Y-107832000D03*
X135264000Y-107198000D03*
X135264000Y-106562000D03*
X135264000Y-105928000D03*
X135264000Y-105292000D03*
X135264000Y-104658000D03*
X129836000Y-104658000D03*
X129836000Y-105292000D03*
X129836000Y-105928000D03*
X129836000Y-106562000D03*
X129836000Y-107198000D03*
X129836000Y-107832000D03*
X129836000Y-108468000D03*
X129836000Y-109102000D03*
X129836000Y-109738000D03*
X129836000Y-110372000D03*
X129836000Y-111008000D03*
X129836000Y-111642000D03*
%TD*%
D12*
%TO.C,IC12*%
X146960000Y-59402000D03*
X146960000Y-60352000D03*
X146960000Y-61302000D03*
X149560000Y-61302000D03*
X149560000Y-60352000D03*
X149560000Y-59402000D03*
%TD*%
D11*
%TO.C,C23*%
X145130000Y-102940000D03*
X145130000Y-104490000D03*
%TD*%
D13*
%TO.C,H100*%
X157500000Y-71900000D03*
D14*
X157500000Y-76100000D03*
%TD*%
D12*
%TO.C,IC6*%
X146960000Y-55456000D03*
X146960000Y-56406000D03*
X146960000Y-57356000D03*
X149560000Y-57356000D03*
X149560000Y-56406000D03*
X149560000Y-55456000D03*
%TD*%
D11*
%TO.C,C13*%
X145130000Y-99015000D03*
X145130000Y-100565000D03*
%TD*%
%TO.C,C25*%
X151390000Y-75369000D03*
X151390000Y-76919000D03*
%TD*%
D17*
%TO.C,R2*%
X119825000Y-99420000D03*
X118175000Y-99420000D03*
%TD*%
D11*
%TO.C,C39*%
X145130000Y-95150000D03*
X145130000Y-96700000D03*
%TD*%
D16*
%TO.C,C8*%
X154220000Y-80745000D03*
X154220000Y-83695000D03*
%TD*%
D11*
%TO.C,C30*%
X145130000Y-91190000D03*
X145130000Y-92740000D03*
%TD*%
%TO.C,C10*%
X145130000Y-51695000D03*
X145130000Y-53245000D03*
%TD*%
M02*
