M48
; DRILL file {KiCad 7.0.5} date Thu Sep 21 19:27:30 2023
; FORMAT={-:-/ absolute / metric / decimal}
; #@! TF.CreationDate,2023-09-21T19:27:30-05:00
; #@! TF.GenerationSoftware,Kicad,Pcbnew,7.0.5
; #@! TF.FileFunction,MixedPlating,1,4
FMAT,2
METRIC
; #@! TA.AperFunction,Plated,PTH,ViaDrill
T1C0.300
; #@! TA.AperFunction,NonPlated,NPTH,ComponentDrill
T2C1.000
%
G90
G05
T1
X101.84Y-81.8
X102.07Y-73.75
X102.159Y-89.909
X102.56Y-81.452
X102.88Y-85.48
X102.97Y-70.2
X103.01Y-78.21
X103.02Y-106.19
X103.05Y-110.12
X103.06Y-86.31
X103.06Y-98.2
X103.06Y-102.27
X103.08Y-62.33
X103.1Y-66.22
X103.1Y-94.26
X103.13Y-58.26
X103.16Y-54.23
X103.46Y-82.61
X103.96Y-83.45
X104.52Y-82.74
X106.674Y-78.75
X106.674Y-94.72
X106.93Y-66.19
X106.94Y-58.26
X106.95Y-62.3
X106.96Y-54.21
X106.96Y-69.63
X106.97Y-98.24
X106.98Y-82.21
X106.98Y-106.17
X107.09Y-85.77
X107.09Y-110.13
X107.35Y-94.251
X107.4Y-78.251
X107.74Y-84.145
X107.78Y-104.034
X107.95Y-80.27
X108.88Y-81.63
X109.07Y-85.87
X110.81Y-81.42
X110.89Y-54.2
X110.91Y-98.24
X110.92Y-94.24
X110.92Y-106.16
X110.94Y-66.17
X110.95Y-70.15
X110.95Y-102.3
X110.97Y-58.23
X110.97Y-62.3
X110.97Y-110.14
X110.98Y-90.24
X111.0Y-74.27
X111.0Y-78.2
X111.0Y-82.22
X111.02Y-86.23
X112.54Y-82.73
X113.35Y-81.38
X114.86Y-66.15
X114.88Y-110.13
X114.91Y-54.16
X114.93Y-106.18
X114.97Y-98.2
X114.98Y-62.29
X114.98Y-90.23
X114.98Y-94.22
X115.0Y-58.21
X115.0Y-70.2
X115.01Y-74.26
X115.04Y-78.16
X115.06Y-102.26
X115.09Y-61.43
X115.47Y-73.48
X115.8Y-70.72
X115.857Y-86.261
X115.87Y-82.21
X115.87Y-84.75
X116.25Y-102.76
X116.92Y-101.55
X117.194Y-82.709
X117.29Y-77.55
X117.467Y-85.52
X118.674Y-62.67
X118.674Y-82.39
X118.78Y-81.38
X118.78Y-86.26
X118.85Y-98.24
X118.85Y-106.18
X118.86Y-94.19
X118.87Y-66.22
X118.9Y-70.15
X118.92Y-78.16
X118.94Y-58.21
X118.95Y-90.28
X118.96Y-54.15
X119.02Y-74.21
X119.03Y-102.25
X119.45Y-110.13
X119.7Y-80.57
X120.15Y-96.43
X120.41Y-97.45
X120.45Y-53.47
X120.45Y-102.77
X120.53Y-77.57
X121.12Y-81.64
X121.21Y-89.74
X122.76Y-86.38
X122.9Y-66.28
X122.9Y-70.05
X122.9Y-110.11
X122.92Y-106.14
X122.93Y-54.18
X122.95Y-58.18
X122.96Y-78.13
X122.97Y-102.25
X122.98Y-74.21
X123.02Y-82.22
X123.03Y-62.31
X123.03Y-90.23
X123.25Y-94.2
X123.32Y-85.7
X123.45Y-98.1
X123.72Y-82.84
X123.79Y-83.88
X123.95Y-90.95
X124.23Y-89.89
X124.249Y-92.91
X124.29Y-91.95
X124.36Y-94.75
X124.58Y-93.66
X124.65Y-53.56
X125.12Y-78.63
X125.26Y-81.51
X125.325Y-109.611
X126.15Y-93.57
X126.304Y-97.65
X126.78Y-101.42
X126.84Y-66.27
X126.88Y-102.62
X126.89Y-89.45
X126.91Y-58.18
X126.91Y-110.1
X126.93Y-106.15
X126.96Y-54.21
X126.96Y-62.31
X126.98Y-90.26
X126.99Y-78.18
X127.0Y-70.1
X127.02Y-86.23
X127.04Y-74.22
X127.056Y-82.104
X127.46Y-102.011
X127.675Y-92.26
X127.82Y-88.963
X128.219Y-91.558
X128.325Y-92.725
X129.08Y-97.971
X129.15Y-94.33
X130.56Y-97.336
X130.75Y-94.4
X130.88Y-70.12
X130.9Y-66.22
X130.93Y-62.29
X130.93Y-74.22
X130.93Y-90.31
X130.96Y-78.15
X130.96Y-98.27
X131.0Y-54.2
X131.009Y-86.571
X131.02Y-58.18
X131.02Y-82.32
X131.02Y-102.62
X131.05Y-85.41
X131.14Y-110.09
X131.17Y-101.42
X131.38Y-106.14
X131.65Y-93.17
X131.661Y-103.907
X131.67Y-94.93
X131.675Y-104.71
X131.7Y-96.63
X131.73Y-95.79
X131.73Y-99.02
X131.771Y-100.871
X131.79Y-97.77
X131.79Y-100.03
X131.873Y-92.17
X132.52Y-78.65
X132.96Y-93.59
X134.674Y-89.43
X134.89Y-98.24
X134.91Y-74.24
X134.93Y-90.36
X134.95Y-102.21
X134.96Y-62.36
X134.98Y-54.23
X134.98Y-66.19
X134.98Y-70.15
X134.98Y-86.23
X134.99Y-78.16
X135.0Y-58.19
X135.01Y-94.14
X135.05Y-82.34
X135.09Y-93.165
X135.3Y-81.58
X135.65Y-104.015
X136.05Y-112.75
X136.26Y-96.6
X136.469Y-78.557
X136.469Y-86.739
X136.469Y-93.28
X136.49Y-94.639
X136.55Y-102.709
X136.58Y-101.373
X136.66Y-105.37
X137.04Y-110.14
X137.16Y-106.675
X137.326Y-81.81
X137.326Y-105.89
X138.674Y-90.74
X138.86Y-85.43
X138.87Y-54.2
X138.87Y-66.23
X138.91Y-62.31
X138.96Y-106.11
X138.98Y-70.17
X138.99Y-86.24
X138.99Y-109.6
X139.0Y-78.16
X139.0Y-98.25
X139.02Y-58.18
X139.02Y-94.17
X139.03Y-74.27
X139.03Y-110.71
X139.077Y-102.21
X139.153Y-81.76
X139.34Y-93.41
X139.47Y-90.631
X139.612Y-101.313
X139.67Y-108.01
X139.71Y-108.81
X139.74Y-92.58
X140.01Y-97.26
X140.489Y-90.75
X140.93Y-86.49
X140.95Y-101.63
X141.02Y-93.53
X142.8Y-90.58
X142.85Y-94.55
X142.87Y-97.263
X142.89Y-110.11
X142.9Y-54.21
X142.93Y-106.12
X142.94Y-74.22
X142.95Y-66.22
X142.96Y-62.29
X142.97Y-102.21
X142.98Y-70.17
X142.99Y-78.18
X142.99Y-98.24
X143.0Y-58.16
X143.03Y-86.23
X143.15Y-81.325
X143.27Y-82.13
X143.304Y-93.415
X143.38Y-77.36
X143.42Y-73.37
X143.46Y-61.39
X143.46Y-65.31
X143.46Y-69.33
X143.648Y-90.818
X143.675Y-108.52
X143.76Y-51.92
X143.76Y-86.8
X143.77Y-80.28
X143.78Y-84.62
X143.79Y-88.23
X144.0Y-98.85
X144.08Y-104.48
X144.17Y-111.89
X144.22Y-99.853
X144.279Y-91.97
X144.279Y-94.471
X144.3Y-101.22
X144.346Y-96.069
X144.81Y-89.64
X146.68Y-97.59
X146.89Y-86.26
X146.94Y-62.29
X146.95Y-78.16
X146.95Y-109.91
X146.96Y-58.16
X146.96Y-70.2
X146.99Y-66.23
X147.0Y-74.22
X147.01Y-54.23
X147.01Y-106.02
X147.02Y-90.19
X147.04Y-94.13
X147.1Y-82.26
X147.1Y-102.08
X147.46Y-98.25
X147.975Y-52.45
X147.975Y-56.39
X149.25Y-101.67
X149.3Y-105.79
X149.326Y-89.77
X150.53Y-101.52
X150.75Y-97.95
X150.83Y-109.87
X150.84Y-93.97
X150.85Y-105.82
X150.86Y-70.22
X150.92Y-54.18
X150.92Y-58.16
X150.92Y-86.19
X150.94Y-66.22
X151.0Y-78.18
X151.02Y-62.31
X151.02Y-90.28
X151.05Y-74.22
X151.09Y-82.37
X151.29Y-101.89
X152.325Y-108.497
X152.325Y-111.58
X152.429Y-61.42
X152.429Y-65.57
X152.429Y-81.32
X152.429Y-97.3
X152.47Y-93.41
X152.49Y-89.54
X152.5Y-57.46
X152.5Y-77.37
X152.53Y-105.37
X152.58Y-53.44
X152.58Y-73.6
X152.68Y-102.689
X152.79Y-69.42
X153.08Y-106.66
X153.1Y-85.35
X153.26Y-101.325
X154.7Y-77.44
X154.89Y-70.22
X154.91Y-82.37
X154.92Y-110.12
X154.93Y-66.23
X154.93Y-106.11
X154.94Y-62.29
X154.94Y-86.28
X154.95Y-58.14
X154.96Y-54.18
X154.96Y-102.2
X154.98Y-94.22
X154.99Y-98.27
X155.0Y-93.42
X155.01Y-78.18
X155.25Y-105.36
X156.0Y-107.21
X156.25Y-108.14
X158.85Y-109.95
X158.86Y-54.2
X158.86Y-94.71
X158.92Y-62.26
X158.95Y-78.74
X158.95Y-98.12
X158.96Y-58.14
X158.97Y-70.01
X159.0Y-102.07
X159.0Y-105.97
X159.04Y-82.36
X159.06Y-66.22
X159.13Y-93.94
X159.15Y-86.09
X159.34Y-78.0
X159.69Y-108.06
X159.98Y-109.36
X160.26Y-113.21
X162.87Y-70.22
X162.89Y-102.23
X162.9Y-62.26
X162.9Y-82.39
X162.9Y-110.19
X162.91Y-78.18
X162.91Y-86.28
X162.92Y-106.11
X162.92Y-109.35
X162.93Y-54.2
X162.93Y-66.22
X162.95Y-90.31
X162.98Y-58.11
X162.98Y-74.21
X162.98Y-98.29
X163.0Y-94.22
T2
X106.5Y-74.0
X106.5Y-90.0
X157.5Y-74.0
X157.5Y-90.0
T0
M30
