M48
; DRILL file {KiCad 7.0.5} date Thu Sep 21 20:03:20 2023
; FORMAT={-:-/ absolute / metric / decimal}
; #@! TF.CreationDate,2023-09-21T20:03:20-05:00
; #@! TF.GenerationSoftware,Kicad,Pcbnew,7.0.5
; #@! TF.FileFunction,MixedPlating,1,4
FMAT,2
METRIC
; #@! TA.AperFunction,Plated,PTH,ViaDrill
T1C0.300
; #@! TA.AperFunction,Plated,PTH,ComponentDrill
T2C0.500
; #@! TA.AperFunction,Plated,PTH,ComponentDrill
T3C3.200
; #@! TA.AperFunction,NonPlated,NPTH,ComponentDrill
T4C0.650
%
G90
G05
T1
X100.12Y-96.16
X101.13Y-69.24
X101.13Y-71.405
X101.13Y-73.57
X101.13Y-75.735
X101.13Y-77.9
X101.13Y-79.74
X101.18Y-81.75
X101.18Y-83.75
X101.18Y-85.75
X101.18Y-87.49
X101.18Y-89.37
X101.18Y-91.09
X101.18Y-92.72
X101.61Y-95.971
X103.06Y-87.49
X103.08Y-69.24
X103.08Y-71.405
X103.08Y-79.75
X103.08Y-81.75
X103.08Y-83.75
X103.08Y-85.75
X103.107Y-99.553
X103.528Y-97.98
X104.45Y-97.02
X104.45Y-97.87
X104.98Y-69.24
X104.98Y-79.75
X104.98Y-81.75
X104.98Y-83.75
X104.98Y-85.75
X105.87Y-97.02
X105.87Y-97.87
X105.9Y-69.63
X106.18Y-94.67
X106.88Y-71.405
X106.88Y-79.75
X106.88Y-81.75
X106.88Y-83.75
X106.88Y-85.75
X106.88Y-87.49
X106.93Y-97.969
X108.23Y-93.13
X110.3Y-99.39
X110.9Y-95.669
X111.31Y-97.47
X111.91Y-81.35
X112.03Y-77.09
X112.55Y-91.61
X112.83Y-81.35
X113.58Y-94.44
X113.84Y-98.34
X114.41Y-75.5
X115.31Y-81.94
X115.96Y-90.87
X116.03Y-79.41
X116.14Y-73.17
X116.48Y-98.42
X117.15Y-73.17
X117.28Y-90.92
X117.65Y-82.06
X118.24Y-73.1
X118.3Y-91.93
X120.09Y-78.65
X120.45Y-75.35
X120.67Y-107.88
X121.09Y-82.94
X123.45Y-80.97
X124.21Y-63.84
X124.42Y-81.469
X124.43Y-79.42
X124.435Y-83.76
X124.502Y-82.441
X126.143Y-82.753
X126.92Y-86.42
X129.12Y-60.6
X129.16Y-61.83
X129.48Y-68.22
X129.834Y-79.59
X130.28Y-110.32
X130.95Y-78.41
X131.19Y-67.6
X131.86Y-68.73
X132.27Y-108.22
X132.28Y-104.4
X132.28Y-105.65
X134.32Y-103.54
X134.853Y-72.843
X134.99Y-64.48
X135.28Y-97.2
X135.62Y-71.6
X136.24Y-106.95
X136.55Y-108.83
X136.68Y-106.137
X137.09Y-91.265
X137.1Y-92.535
X137.27Y-95.06
X137.43Y-80.99
X138.35Y-88.63
X138.48Y-90.39
X139.45Y-104.4
X139.47Y-105.66
X139.52Y-108.23
X139.64Y-89.83
X139.72Y-88.07
X139.73Y-83.2
X140.17Y-90.43
X140.76Y-89.117
X140.99Y-87.56
X141.233Y-94.573
X141.28Y-110.31
X141.33Y-96.3
X141.35Y-93.78
X141.52Y-65.7
X141.65Y-95.55
X141.72Y-93.027
X142.235Y-66.435
X142.24Y-79.15
X142.26Y-87.06
X143.28Y-106.03
X143.28Y-108.8
X143.31Y-106.91
X144.019Y-63.14
X144.055Y-64.675
X144.24Y-82.71
X144.24Y-91.28
X144.3Y-95.08
X144.31Y-92.54
X144.341Y-85.279
X145.141Y-85.291
X145.25Y-110.52
X145.96Y-87.24
X146.01Y-85.081
X146.18Y-103.52
X146.27Y-97.26
X146.43Y-75.83
X146.84Y-84.94
X147.31Y-79.12
X147.32Y-69.19
X147.63Y-87.95
X147.66Y-67.08
X148.25Y-67.71
X148.26Y-92.83
X148.32Y-96.29
X148.34Y-95.36
X148.38Y-93.8
X148.665Y-88.025
X148.84Y-70.52
X149.28Y-74.2
X149.49Y-69.12
X149.76Y-83.75
X150.05Y-81.72
X150.31Y-90.4
X150.4Y-80.12
X150.93Y-88.04
X150.94Y-85.75
X152.12Y-66.84
X152.46Y-86.458
X152.54Y-69.86
X154.4Y-71.08
X156.26Y-70.07
X157.83Y-84.69
X157.84Y-81.2
X159.11Y-72.09
X159.14Y-88.11
X160.21Y-66.32
T2
X102.55Y-74.75
X102.55Y-90.75
X103.253Y-73.053
X103.253Y-76.447
X103.253Y-89.053
X103.253Y-92.447
X104.95Y-72.35
X104.95Y-77.15
X104.95Y-88.35
X104.95Y-93.15
X106.647Y-73.053
X106.647Y-76.447
X106.647Y-89.053
X106.647Y-92.447
X107.35Y-74.75
X107.35Y-90.75
X153.55Y-74.75
X153.55Y-90.75
X154.253Y-73.053
X154.253Y-76.447
X154.253Y-89.053
X154.253Y-92.447
X155.95Y-72.35
X155.95Y-77.15
X155.95Y-88.35
X155.95Y-93.15
X157.647Y-73.053
X157.647Y-76.447
X157.647Y-89.053
X157.647Y-92.447
X158.35Y-74.75
X158.35Y-90.75
T3
X104.95Y-74.75
X104.95Y-90.75
X155.95Y-74.75
X155.95Y-90.75
T4
X113.5Y-73.136
X119.28Y-73.136
T0
M30
